<svg id="svg" version="1.1" xmlns="http://www.w3.org/2000/svg" xmlns:xlink="http://www.w3.org/1999/xlink" width="400" height="400.74074074074076" viewBox="0, 0, 400,400.74074074074076"><g id="svgg"><path id="path0" d="M0.054 16.700 C 0.084 25.885,0.190 32.950,0.288 32.400 C 0.387 31.850,0.632 31.229,0.834 31.020 C 1.035 30.811,1.200 30.046,1.200 29.320 C 1.200 28.594,1.380 28.000,1.600 28.000 C 1.820 28.000,2.000 27.657,2.000 27.238 C 2.000 26.527,3.507 23.246,4.038 22.800 C 4.170 22.690,4.388 22.146,4.523 21.592 C 4.658 21.038,5.136 20.190,5.585 19.709 C 6.033 19.227,6.404 18.601,6.409 18.317 C 6.414 18.033,7.134 17.181,8.009 16.424 C 8.884 15.667,9.600 14.849,9.600 14.607 C 9.600 14.042,12.891 10.800,13.464 10.800 C 13.703 10.800,14.645 9.990,15.557 9.000 C 16.470 8.010,17.483 7.200,17.808 7.200 C 18.134 7.200,18.400 7.020,18.400 6.800 C 18.400 6.580,18.760 6.400,19.200 6.400 C 19.640 6.400,20.000 6.264,20.000 6.098 C 20.000 5.931,20.585 5.549,21.300 5.248 C 22.015 4.947,23.123 4.453,23.761 4.150 C 24.400 3.848,25.255 3.600,25.661 3.600 C 26.068 3.600,26.400 3.420,26.400 3.200 C 26.400 2.980,26.940 2.800,27.600 2.800 C 28.260 2.800,28.800 2.620,28.800 2.400 C 28.800 2.180,29.239 2.000,29.776 2.000 C 30.313 2.000,30.864 1.820,31.000 1.600 C 31.136 1.380,32.306 1.200,33.600 1.200 C 34.894 1.200,36.064 1.020,36.200 0.800 C 36.543 0.245,362.657 0.245,363.000 0.800 C 363.136 1.020,364.306 1.200,365.600 1.200 C 366.894 1.200,368.064 1.380,368.200 1.600 C 368.336 1.820,368.887 2.000,369.424 2.000 C 369.961 2.000,370.400 2.180,370.400 2.400 C 370.400 2.620,370.940 2.800,371.600 2.800 C 372.260 2.800,372.800 2.980,372.800 3.200 C 372.800 3.420,373.419 3.600,374.176 3.600 C 374.933 3.600,375.657 3.768,375.784 3.974 C 375.911 4.180,377.047 4.849,378.308 5.460 C 379.568 6.071,380.660 6.712,380.733 6.885 C 380.807 7.058,381.167 7.204,381.533 7.209 C 381.900 7.213,382.738 7.843,383.396 8.609 C 384.054 9.374,384.794 10.000,385.040 10.000 C 385.569 10.000,390.400 14.780,390.400 15.303 C 390.400 15.501,391.081 16.324,391.913 17.131 C 393.271 18.449,395.600 22.458,395.600 23.478 C 395.600 23.697,395.960 24.202,396.400 24.600 C 396.896 25.049,397.200 25.832,397.200 26.662 C 397.200 27.398,397.380 28.000,397.600 28.000 C 397.820 28.000,398.000 28.439,398.000 28.976 C 398.000 29.513,398.180 30.064,398.400 30.200 C 398.620 30.336,398.800 30.851,398.800 31.344 C 398.800 31.837,398.970 32.411,399.178 32.620 C 399.386 32.829,399.622 34.080,399.702 35.400 C 399.783 36.720,399.883 29.295,399.924 18.900 L 400.000 0.000 200.000 0.000 L 0.000 0.000 0.054 16.700 M112.800 108.800 L 112.800 130.800 142.000 130.800 L 171.200 130.800 171.200 165.800 C 171.200 197.102,171.135 200.800,170.582 200.800 C 169.936 200.800,168.000 199.079,168.000 198.505 C 168.000 198.322,167.010 197.195,165.800 196.000 C 164.590 194.805,163.600 193.635,163.600 193.400 C 163.600 193.165,162.610 191.995,161.400 190.800 C 160.190 189.605,159.200 188.435,159.200 188.200 C 159.200 187.965,158.210 186.795,157.000 185.600 C 155.790 184.405,154.800 183.265,154.800 183.067 C 154.800 182.869,153.720 181.640,152.400 180.336 C 151.080 179.033,150.000 177.798,150.000 177.592 C 150.000 177.386,149.010 176.227,147.800 175.017 C 146.590 173.807,145.600 172.653,145.600 172.452 C 145.600 172.251,144.610 171.097,143.400 169.887 C 142.190 168.677,141.200 167.526,141.200 167.330 C 141.200 167.133,140.210 165.995,139.000 164.800 C 137.790 163.605,136.800 162.435,136.800 162.200 C 136.800 161.965,135.810 160.795,134.600 159.600 C 133.390 158.405,132.400 157.235,132.400 157.000 C 132.400 156.765,131.410 155.595,130.200 154.400 C 128.990 153.205,128.000 152.082,128.000 151.905 C 128.000 151.728,127.012 150.552,125.805 149.292 C 124.598 148.031,123.608 146.853,123.605 146.674 C 123.602 146.495,122.610 145.389,121.400 144.217 C 120.190 143.045,119.200 141.868,119.200 141.600 C 119.200 141.333,118.210 140.186,117.000 139.051 C 115.790 137.915,114.800 136.785,114.800 136.539 C 114.800 136.293,114.037 135.351,113.104 134.446 L 111.408 132.800 74.728 132.800 L 38.049 132.800 45.424 140.166 C 49.481 144.217,52.800 147.683,52.800 147.868 C 52.800 148.054,57.660 153.063,63.600 159.000 C 69.540 164.937,74.400 169.977,74.400 170.200 C 74.400 170.423,79.170 175.373,85.000 181.200 C 90.830 187.027,95.600 191.973,95.600 192.191 C 95.600 192.409,97.524 194.517,99.877 196.877 C 104.535 201.550,104.649 201.887,102.303 204.047 C 101.916 204.403,101.600 204.988,101.600 205.347 C 101.600 205.706,101.463 206.000,101.295 206.000 C 100.976 206.000,100.781 206.325,99.301 209.328 C 98.807 210.331,98.226 211.260,98.012 211.393 C 97.797 211.525,97.311 212.301,96.932 213.117 C 96.552 213.933,96.122 214.690,95.977 214.800 C 95.831 214.910,95.412 215.585,95.046 216.300 C 94.679 217.015,94.204 217.600,93.990 217.600 C 93.775 217.600,93.600 217.960,93.600 218.400 C 93.600 218.840,93.420 219.200,93.200 219.200 C 92.980 219.200,92.800 219.448,92.800 219.751 C 92.800 220.054,92.521 220.534,92.180 220.816 C 91.839 221.099,91.198 222.066,90.755 222.965 C 89.575 225.359,89.009 226.306,88.264 227.129 C 87.899 227.533,87.600 228.074,87.600 228.331 C 87.600 228.589,87.420 228.800,87.200 228.800 C 86.980 228.800,86.800 229.120,86.800 229.512 C 86.800 229.903,86.447 230.478,86.015 230.789 C 85.583 231.101,85.121 231.848,84.989 232.450 C 84.857 233.052,84.487 233.762,84.167 234.027 C 83.847 234.293,83.288 235.160,82.926 235.955 C 82.563 236.750,81.997 237.716,81.668 238.103 C 80.932 238.969,80.096 240.369,79.760 241.300 C 79.621 241.685,79.348 242.000,79.153 242.000 C 78.959 242.000,78.800 242.294,78.800 242.653 C 78.800 243.012,78.476 243.597,78.080 243.953 C 77.683 244.309,77.040 245.230,76.650 246.000 C 75.563 248.147,74.983 249.129,74.347 249.897 C 74.027 250.284,73.504 251.140,73.185 251.800 C 72.866 252.460,72.289 253.291,71.903 253.647 C 71.516 254.003,71.200 254.588,71.200 254.947 C 71.200 255.306,71.063 255.600,70.895 255.600 C 70.578 255.600,70.384 255.922,68.920 258.887 C 68.436 259.867,67.761 260.901,67.420 261.184 C 67.079 261.466,66.800 261.918,66.800 262.187 C 66.800 262.456,66.450 262.993,66.023 263.379 C 65.595 263.766,65.129 264.613,64.987 265.261 C 64.844 265.908,64.384 266.653,63.964 266.915 C 63.544 267.178,63.200 267.709,63.200 268.096 C 63.200 268.483,63.020 268.800,62.800 268.800 C 62.580 268.800,62.400 269.117,62.400 269.504 C 62.400 269.891,62.056 270.422,61.636 270.685 C 61.216 270.947,60.756 271.692,60.613 272.339 C 60.471 272.987,60.005 273.834,59.577 274.221 C 59.150 274.607,58.800 275.138,58.800 275.400 C 58.800 275.662,58.440 276.202,58.000 276.600 C 57.560 276.998,57.200 277.566,57.200 277.862 C 57.200 278.158,57.020 278.400,56.800 278.400 C 56.580 278.400,56.400 278.760,56.400 279.200 C 56.400 279.640,56.252 280.000,56.071 280.000 C 55.890 280.000,55.347 280.790,54.865 281.756 C 54.382 282.722,53.720 283.734,53.394 284.005 C 53.067 284.276,52.800 284.724,52.800 285.000 C 52.800 285.276,52.521 285.734,52.180 286.016 C 51.839 286.299,51.164 287.333,50.680 288.313 C 49.216 291.278,49.022 291.600,48.705 291.600 C 48.537 291.600,48.400 291.920,48.400 292.312 C 48.400 292.703,48.040 293.283,47.600 293.600 C 47.160 293.917,46.800 294.497,46.800 294.888 C 46.800 295.280,46.641 295.600,46.447 295.600 C 46.252 295.600,45.979 295.915,45.840 296.300 C 45.512 297.207,44.682 298.610,43.947 299.497 C 43.627 299.884,43.104 300.740,42.785 301.400 C 42.466 302.060,41.889 302.891,41.503 303.247 C 41.116 303.603,40.800 304.174,40.800 304.516 C 40.800 304.859,40.350 305.673,39.800 306.327 C 39.250 306.981,38.800 307.692,38.800 307.909 C 38.800 308.125,38.521 308.534,38.180 308.816 C 37.839 309.099,37.203 310.066,36.767 310.965 C 36.331 311.864,35.624 313.185,35.195 313.900 L 34.416 315.200 68.437 315.200 C 104.512 315.200,103.600 315.246,103.600 313.429 C 103.600 313.083,103.780 312.800,104.000 312.800 C 104.220 312.800,104.400 312.588,104.400 312.330 C 104.400 311.696,107.291 305.835,107.686 305.667 C 107.859 305.593,108.000 305.188,108.000 304.767 C 108.000 304.345,108.180 304.000,108.400 304.000 C 108.620 304.000,108.800 303.640,108.800 303.200 C 108.800 302.760,108.980 302.400,109.200 302.400 C 109.420 302.400,109.600 302.188,109.600 301.930 C 109.600 301.296,112.491 295.435,112.886 295.267 C 113.059 295.193,113.200 294.803,113.200 294.400 C 113.200 293.997,113.335 293.607,113.500 293.533 C 113.814 293.394,114.782 291.696,116.656 288.000 C 117.269 286.790,117.912 285.740,118.085 285.667 C 118.258 285.593,118.400 285.188,118.400 284.767 C 118.400 284.345,118.580 284.000,118.800 284.000 C 119.020 284.000,119.200 283.745,119.200 283.434 C 119.200 282.763,122.866 275.460,123.300 275.267 C 123.465 275.193,123.600 274.788,123.600 274.367 C 123.600 273.945,123.780 273.600,124.000 273.600 C 124.220 273.600,124.400 273.388,124.400 273.130 C 124.400 272.496,127.291 266.635,127.686 266.467 C 127.859 266.393,128.000 265.988,128.000 265.567 C 128.000 265.145,128.180 264.800,128.400 264.800 C 128.620 264.800,128.800 264.440,128.800 264.000 C 128.800 263.560,128.966 263.200,129.168 263.200 C 129.371 263.200,129.652 262.672,129.794 262.028 C 129.936 261.383,130.306 260.644,130.617 260.386 C 130.927 260.128,131.674 258.901,132.276 257.659 C 132.878 256.416,133.512 255.340,133.685 255.267 C 133.858 255.193,134.000 254.788,134.000 254.367 C 134.000 253.945,134.180 253.600,134.400 253.600 C 134.620 253.600,134.800 253.388,134.800 253.130 C 134.800 252.496,137.691 246.635,138.086 246.467 C 138.259 246.393,138.400 245.988,138.400 245.567 C 138.400 245.145,138.580 244.800,138.800 244.800 C 139.020 244.800,139.200 244.513,139.200 244.162 C 139.200 242.901,141.362 239.600,142.187 239.600 C 142.757 239.600,147.600 244.290,147.600 244.842 C 147.600 245.061,151.110 248.734,155.400 253.005 C 159.690 257.276,163.200 260.945,163.200 261.158 C 163.200 261.371,165.180 263.518,167.600 265.929 L 172.000 270.313 172.000 292.756 L 172.000 315.200 200.000 315.200 L 228.000 315.200 228.000 292.399 L 228.000 269.597 233.600 264.000 C 236.680 260.922,239.200 258.249,239.200 258.062 C 239.200 257.874,242.710 254.204,247.000 249.906 C 251.290 245.609,254.800 241.923,254.800 241.716 C 254.800 241.178,256.556 239.600,257.154 239.600 C 257.855 239.600,258.800 240.617,258.800 241.371 C 258.800 241.717,258.980 242.000,259.200 242.000 C 259.420 242.000,259.600 242.177,259.600 242.392 C 259.600 242.977,262.767 249.532,263.170 249.781 C 263.662 250.085,265.200 253.114,265.200 253.779 C 265.200 254.084,265.335 254.393,265.500 254.467 C 265.916 254.652,270.400 263.569,270.400 264.211 C 270.400 264.498,270.543 264.793,270.717 264.867 C 270.892 264.940,272.540 268.022,274.380 271.715 C 276.220 275.408,277.855 278.510,278.013 278.608 C 278.450 278.878,280.800 283.594,280.800 284.201 C 280.800 284.494,280.935 284.793,281.100 284.867 C 281.534 285.060,285.200 292.363,285.200 293.034 C 285.200 293.345,285.380 293.600,285.600 293.600 C 285.820 293.600,286.000 293.945,286.000 294.367 C 286.000 294.788,286.135 295.193,286.300 295.267 C 286.734 295.460,290.400 302.763,290.400 303.434 C 290.400 303.745,290.536 304.000,290.702 304.000 C 290.869 304.000,291.255 304.585,291.561 305.300 C 291.866 306.015,292.371 306.897,292.683 307.259 C 293.510 308.221,295.600 312.351,295.600 313.024 C 295.600 313.341,295.780 313.600,296.000 313.600 C 296.220 313.600,296.400 313.960,296.400 314.400 C 296.400 315.194,296.667 315.200,330.545 315.200 L 364.689 315.200 364.498 314.200 C 364.393 313.650,364.148 313.200,363.953 313.200 C 363.759 313.200,363.600 312.958,363.600 312.662 C 363.600 312.366,363.240 311.798,362.800 311.400 C 362.360 311.002,362.000 310.456,362.000 310.187 C 362.000 309.918,361.733 309.476,361.406 309.205 C 361.080 308.934,360.418 307.922,359.935 306.956 C 359.453 305.990,358.910 305.200,358.729 305.200 C 358.548 305.200,358.400 304.840,358.400 304.400 C 358.400 303.960,358.220 303.600,358.000 303.600 C 357.780 303.600,357.600 303.259,357.600 302.843 C 357.600 302.426,357.339 301.985,357.019 301.863 C 356.700 301.740,356.058 300.866,355.594 299.920 C 354.382 297.451,353.818 296.504,353.064 295.671 C 352.699 295.267,352.400 294.726,352.400 294.469 C 352.400 294.211,352.220 294.000,352.000 294.000 C 351.780 294.000,351.600 293.722,351.600 293.383 C 351.600 293.044,351.233 292.373,350.785 291.891 C 350.336 291.410,349.857 290.562,349.721 290.008 C 349.584 289.454,349.141 288.709,348.736 288.353 C 348.331 287.997,348.000 287.524,348.000 287.302 C 348.000 287.080,347.721 286.666,347.380 286.384 C 347.039 286.101,346.364 285.067,345.880 284.087 C 344.416 281.122,344.222 280.800,343.905 280.800 C 343.737 280.800,343.600 280.480,343.600 280.088 C 343.600 279.697,343.240 279.117,342.800 278.800 C 342.360 278.483,342.000 277.903,342.000 277.512 C 342.000 277.120,341.820 276.800,341.600 276.800 C 341.380 276.800,341.200 276.589,341.200 276.331 C 341.200 276.074,340.901 275.533,340.536 275.129 C 339.838 274.358,339.326 273.516,338.144 271.200 C 337.752 270.430,337.211 269.575,336.943 269.299 C 336.675 269.023,336.051 267.988,335.557 266.999 C 335.063 266.010,334.510 265.200,334.329 265.200 C 334.148 265.200,334.000 264.840,334.000 264.400 C 334.000 263.960,333.820 263.600,333.600 263.600 C 333.380 263.600,333.200 263.358,333.200 263.062 C 333.200 262.766,332.840 262.198,332.400 261.800 C 331.960 261.402,331.600 260.862,331.600 260.600 C 331.600 260.338,331.250 259.807,330.823 259.421 C 330.395 259.034,329.939 258.231,329.808 257.636 C 329.677 257.042,329.217 256.301,328.785 255.989 C 328.353 255.678,328.000 255.103,328.000 254.712 C 328.000 254.320,327.820 254.000,327.600 254.000 C 327.380 254.000,327.200 253.659,327.200 253.243 C 327.200 252.826,326.945 252.388,326.634 252.268 C 326.070 252.052,325.603 251.308,324.030 248.124 C 323.575 247.203,323.026 246.340,322.812 246.207 C 322.597 246.075,322.107 245.299,321.724 244.483 C 321.340 243.667,320.698 242.644,320.298 242.208 C 319.897 241.772,319.457 240.962,319.321 240.408 C 319.184 239.854,318.741 239.109,318.336 238.753 C 317.931 238.397,317.600 237.924,317.600 237.702 C 317.600 237.480,317.321 237.066,316.980 236.784 C 316.639 236.501,315.964 235.467,315.480 234.487 C 314.016 231.522,313.822 231.200,313.505 231.200 C 313.337 231.200,313.200 230.880,313.200 230.488 C 313.200 230.097,312.840 229.517,312.400 229.200 C 311.960 228.883,311.600 228.421,311.600 228.174 C 311.600 227.926,311.250 227.407,310.823 227.021 C 310.395 226.634,309.934 225.808,309.797 225.186 C 309.660 224.564,309.281 223.833,308.954 223.562 C 308.628 223.291,308.010 222.300,307.581 221.359 C 307.153 220.418,306.632 219.544,306.425 219.415 C 306.217 219.287,305.645 218.376,305.153 217.391 C 304.661 216.406,304.110 215.600,303.929 215.600 C 303.748 215.600,303.600 215.306,303.600 214.947 C 303.600 214.588,303.276 214.003,302.880 213.647 C 302.483 213.291,301.857 212.350,301.487 211.555 C 301.117 210.760,300.553 209.893,300.233 209.627 C 299.913 209.362,299.534 208.609,299.390 207.953 C 299.246 207.298,298.784 206.547,298.364 206.285 C 297.944 206.022,297.600 205.491,297.600 205.104 C 297.600 204.717,297.420 204.400,297.200 204.400 C 296.980 204.400,296.800 204.083,296.800 203.696 C 296.800 203.309,296.440 202.768,296.000 202.493 C 294.667 201.660,294.980 201.210,301.200 195.000 C 304.500 191.706,307.200 188.827,307.200 188.602 C 307.200 188.378,312.240 183.157,318.400 177.000 C 324.560 170.843,329.600 165.647,329.600 165.453 C 329.600 165.260,334.370 160.341,340.200 154.522 C 346.030 148.703,350.800 143.770,350.800 143.560 C 350.800 143.350,353.138 140.843,355.996 137.989 L 361.192 132.800 324.474 132.800 L 287.757 132.800 286.478 134.119 C 285.775 134.845,285.200 135.632,285.200 135.870 C 285.200 136.107,284.210 137.214,283.000 138.330 C 281.790 139.446,280.800 140.579,280.800 140.848 C 280.800 141.117,279.810 142.289,278.600 143.451 C 277.390 144.614,276.400 145.757,276.400 145.991 C 276.400 146.226,275.410 147.392,274.200 148.583 C 272.990 149.774,272.000 150.919,272.000 151.129 C 272.000 151.338,271.013 152.475,269.806 153.655 C 268.599 154.835,267.609 155.986,267.606 156.214 C 267.603 156.441,266.610 157.605,265.400 158.800 C 264.190 159.995,263.200 161.165,263.200 161.400 C 263.200 161.635,262.210 162.805,261.000 164.000 C 259.790 165.195,258.800 166.365,258.800 166.600 C 258.800 166.835,257.810 168.005,256.600 169.200 C 255.390 170.395,254.400 171.541,254.400 171.747 C 254.400 171.952,253.410 173.079,252.200 174.251 C 250.990 175.423,250.000 176.550,250.000 176.756 C 250.000 176.962,248.920 178.227,247.600 179.568 C 246.280 180.908,245.200 182.156,245.200 182.340 C 245.200 182.525,244.210 183.698,243.000 184.947 C 241.790 186.196,240.800 187.355,240.800 187.523 C 240.800 187.690,239.810 188.805,238.600 190.000 C 237.390 191.195,236.400 192.365,236.400 192.600 C 236.400 192.835,235.410 194.005,234.200 195.200 C 232.990 196.395,232.000 197.566,232.000 197.803 C 232.000 198.435,228.600 201.666,228.276 201.342 C 228.124 201.191,228.000 185.728,228.000 166.980 L 228.000 132.893 227.165 132.675 C 226.624 132.534,226.380 132.200,226.471 131.728 C 226.605 131.033,227.928 130.995,255.705 130.897 L 284.800 130.795 284.800 108.797 L 284.800 86.800 198.800 86.800 L 112.800 86.800 112.800 108.800 M399.600 366.776 C 399.600 368.083,399.420 369.264,399.200 369.400 C 398.980 369.536,398.800 370.087,398.800 370.624 C 398.800 371.161,398.620 371.600,398.400 371.600 C 398.180 371.600,398.000 372.039,398.000 372.576 C 398.000 373.113,397.820 373.664,397.600 373.800 C 397.380 373.936,397.200 374.361,397.200 374.744 C 397.200 375.619,396.301 377.593,395.900 377.597 C 395.735 377.599,395.600 377.854,395.600 378.166 C 395.600 379.298,393.142 383.494,391.591 385.009 C 390.716 385.863,390.000 386.758,390.000 386.998 C 390.000 387.542,386.715 390.800,386.166 390.800 C 385.944 390.800,385.059 391.520,384.200 392.400 C 383.341 393.280,382.475 394.000,382.277 394.000 C 382.078 394.000,381.381 394.450,380.727 395.000 C 380.073 395.550,379.192 396.000,378.769 396.000 C 378.346 396.000,378.000 396.180,378.000 396.400 C 378.000 396.620,377.640 396.800,377.200 396.800 C 376.760 396.800,376.399 396.935,376.397 397.100 C 376.393 397.501,374.419 398.400,373.544 398.400 C 373.161 398.400,372.736 398.580,372.600 398.800 C 372.464 399.020,371.913 399.200,371.376 399.200 C 370.839 399.200,370.400 399.369,370.400 399.576 C 370.400 399.783,369.725 400.022,368.900 400.109 C 368.075 400.195,374.735 400.296,383.700 400.333 L 400.000 400.400 400.000 382.400 C 400.000 372.500,399.910 364.400,399.800 364.400 C 399.690 364.400,399.600 365.469,399.600 366.776 M0.060 384.500 L 0.000 400.400 15.900 400.340 C 24.645 400.307,31.305 400.205,30.700 400.113 C 30.095 400.022,29.600 399.779,29.600 399.573 C 29.600 399.368,28.981 399.200,28.224 399.200 C 27.467 399.200,26.736 399.020,26.600 398.800 C 26.464 398.580,25.913 398.400,25.376 398.400 C 24.839 398.400,24.400 398.220,24.400 398.000 C 24.400 397.780,24.040 397.600,23.600 397.600 C 23.160 397.600,22.800 397.420,22.800 397.200 C 22.800 396.980,22.440 396.800,22.000 396.800 C 21.560 396.800,21.200 396.663,21.200 396.495 C 21.200 396.180,20.912 396.006,17.948 394.530 C 16.986 394.051,15.488 392.926,14.619 392.030 C 13.749 391.133,12.859 390.400,12.641 390.400 C 12.089 390.400,10.000 388.348,10.000 387.806 C 10.000 387.562,9.267 386.651,8.370 385.781 C 7.474 384.912,6.349 383.414,5.870 382.452 C 4.394 379.488,4.220 379.200,3.905 379.200 C 3.737 379.200,3.600 378.840,3.600 378.400 C 3.600 377.960,3.420 377.600,3.200 377.600 C 2.980 377.600,2.800 377.240,2.800 376.800 C 2.800 376.360,2.620 376.000,2.400 376.000 C 2.180 376.000,2.000 375.561,2.000 375.024 C 2.000 374.487,1.820 373.936,1.600 373.800 C 1.380 373.664,1.200 372.933,1.200 372.176 C 1.200 371.419,1.032 370.800,0.827 370.800 C 0.621 370.800,0.378 370.305,0.287 369.700 C 0.195 369.095,0.093 375.755,0.060 384.500 " stroke="none" fill="#fcfcfc" fill-rule="evenodd"></path><path id="path1" d="M36.400 1.200 C 36.400 1.426,35.267 1.600,33.800 1.600 C 32.333 1.600,31.200 1.774,31.200 2.000 C 31.200 2.220,30.761 2.400,30.224 2.400 C 29.687 2.400,29.136 2.580,29.000 2.800 C 28.864 3.020,28.401 3.200,27.971 3.200 C 27.541 3.200,26.877 3.359,26.495 3.553 C 26.113 3.748,25.350 4.092,24.800 4.318 C 20.958 5.896,17.141 8.015,15.669 9.387 C 14.717 10.274,13.730 11.074,13.476 11.164 C 12.914 11.364,10.000 14.357,10.000 14.735 C 10.000 14.883,9.280 15.769,8.400 16.703 C 7.520 17.637,6.800 18.553,6.800 18.739 C 6.800 18.924,6.440 19.402,6.000 19.800 C 5.560 20.198,5.200 20.703,5.200 20.922 C 5.200 21.508,3.083 25.777,2.715 25.933 C 2.542 26.007,2.400 26.491,2.400 27.010 C 2.400 27.528,2.220 28.064,2.000 28.200 C 1.780 28.336,1.600 29.067,1.600 29.824 C 1.600 30.581,1.420 31.200,1.200 31.200 C 0.980 31.200,0.800 31.740,0.800 32.400 C 0.800 33.060,0.620 33.600,0.400 33.600 C 0.134 33.600,0.000 89.667,0.000 201.000 C 0.000 312.333,0.134 368.400,0.400 368.400 C 0.620 368.400,0.800 368.839,0.800 369.376 C 0.800 369.913,0.980 370.464,1.200 370.600 C 1.420 370.736,1.600 371.467,1.600 372.224 C 1.600 372.981,1.780 373.600,2.000 373.600 C 2.220 373.600,2.400 373.933,2.400 374.340 C 2.400 374.747,3.118 376.412,3.996 378.040 C 4.873 379.668,5.704 381.315,5.842 381.700 C 5.980 382.085,6.252 382.400,6.447 382.400 C 6.641 382.400,6.805 382.715,6.811 383.100 C 6.817 383.485,7.627 384.504,8.611 385.365 C 9.595 386.226,10.400 387.179,10.400 387.483 C 10.400 388.155,12.181 390.000,12.830 390.000 C 13.086 390.000,14.072 390.810,15.021 391.800 C 15.969 392.790,17.028 393.600,17.373 393.600 C 17.718 393.600,18.000 393.759,18.000 393.953 C 18.000 394.148,18.315 394.420,18.700 394.558 C 19.085 394.696,20.732 395.527,22.360 396.404 C 23.988 397.282,25.653 398.000,26.060 398.000 C 26.467 398.000,26.800 398.180,26.800 398.400 C 26.800 398.620,27.419 398.800,28.176 398.800 C 28.933 398.800,29.664 398.980,29.800 399.200 C 29.936 399.420,30.487 399.600,31.024 399.600 C 31.561 399.600,32.000 399.780,32.000 400.000 C 32.000 400.266,88.133 400.400,199.600 400.400 C 311.067 400.400,367.200 400.266,367.200 400.000 C 367.200 399.780,367.819 399.600,368.576 399.600 C 369.333 399.600,370.064 399.420,370.200 399.200 C 370.336 398.980,370.887 398.800,371.424 398.800 C 371.961 398.800,372.400 398.620,372.400 398.400 C 372.400 398.180,372.925 398.000,373.567 398.000 C 374.208 398.000,374.793 397.858,374.867 397.685 C 375.031 397.297,379.308 395.200,379.936 395.200 C 380.188 395.200,380.618 394.840,380.893 394.400 C 381.168 393.960,381.619 393.600,381.896 393.600 C 382.173 393.600,383.141 392.880,384.048 392.000 C 384.955 391.120,385.840 390.400,386.016 390.400 C 386.507 390.400,389.600 387.319,389.600 386.829 C 389.600 386.591,390.370 385.631,391.311 384.698 C 392.252 383.764,393.525 381.920,394.141 380.600 C 394.756 379.280,395.606 377.508,396.030 376.662 C 396.453 375.816,396.800 374.781,396.800 374.362 C 396.800 373.943,396.980 373.600,397.200 373.600 C 397.420 373.600,397.600 373.161,397.600 372.624 C 397.600 372.087,397.780 371.536,398.000 371.400 C 398.220 371.264,398.400 370.713,398.400 370.176 C 398.400 369.639,398.580 369.200,398.800 369.200 C 399.026 369.200,399.200 368.067,399.200 366.600 C 399.200 365.133,399.374 364.000,399.600 364.000 C 399.866 364.000,400.000 309.400,400.000 201.000 C 400.000 92.600,399.866 38.000,399.600 38.000 C 399.374 38.000,399.200 36.867,399.200 35.400 C 399.200 33.933,399.026 32.800,398.800 32.800 C 398.580 32.800,398.400 32.260,398.400 31.600 C 398.400 30.940,398.220 30.400,398.000 30.400 C 397.780 30.400,397.600 29.961,397.600 29.424 C 397.600 28.887,397.420 28.336,397.200 28.200 C 396.980 28.064,396.800 27.373,396.800 26.665 C 396.800 25.835,396.515 25.171,396.000 24.800 C 395.560 24.483,395.200 24.064,395.200 23.869 C 395.200 22.879,392.672 18.427,391.425 17.222 C 390.641 16.463,390.000 15.653,390.000 15.421 C 390.000 14.915,385.423 10.400,384.910 10.400 C 384.712 10.400,384.026 9.854,383.387 9.186 C 382.748 8.519,381.229 7.491,380.012 6.901 C 378.795 6.312,377.740 5.688,377.667 5.515 C 377.593 5.342,377.210 5.200,376.816 5.200 C 376.421 5.200,375.874 4.930,375.600 4.600 C 375.326 4.270,374.595 4.000,373.975 4.000 C 373.355 4.000,372.736 3.820,372.600 3.600 C 372.464 3.380,371.924 3.200,371.400 3.200 C 370.876 3.200,370.336 3.020,370.200 2.800 C 370.064 2.580,369.513 2.400,368.976 2.400 C 368.439 2.400,368.000 2.220,368.000 2.000 C 368.000 1.774,366.867 1.600,365.400 1.600 C 363.933 1.600,362.800 1.426,362.800 1.200 C 362.800 0.934,308.133 0.800,199.600 0.800 C 91.067 0.800,36.400 0.934,36.400 1.200 M285.200 108.800 L 285.200 131.200 256.000 131.200 C 230.311 131.200,226.800 131.272,226.800 131.800 C 226.800 132.133,227.156 132.400,227.600 132.400 C 228.394 132.400,228.400 132.667,228.400 166.834 L 228.400 201.269 229.989 199.534 C 230.863 198.580,231.583 197.669,231.589 197.509 C 231.595 197.349,232.590 196.196,233.800 194.947 C 235.010 193.698,236.000 192.508,236.000 192.303 C 236.000 192.098,236.990 190.980,238.200 189.817 C 239.410 188.654,240.400 187.539,240.400 187.338 C 240.400 187.137,241.390 185.995,242.600 184.800 C 243.810 183.605,244.800 182.436,244.800 182.201 C 244.800 181.967,245.880 180.706,247.200 179.400 C 248.520 178.094,249.600 176.833,249.600 176.599 C 249.600 176.364,250.590 175.195,251.800 174.000 C 253.010 172.805,254.000 171.651,254.000 171.436 C 254.000 171.221,254.990 170.086,256.200 168.914 C 257.410 167.742,258.400 166.588,258.400 166.348 C 258.400 166.109,259.390 164.939,260.600 163.748 C 261.810 162.557,262.800 161.399,262.800 161.174 C 262.800 160.949,263.790 159.799,265.000 158.617 C 266.210 157.436,267.200 156.284,267.200 156.057 C 267.200 155.831,268.190 154.709,269.400 153.565 C 270.610 152.420,271.600 151.279,271.600 151.028 C 271.600 150.778,272.590 149.595,273.800 148.400 C 275.010 147.205,276.000 146.035,276.000 145.800 C 276.000 145.565,276.990 144.395,278.200 143.200 C 279.410 142.005,280.400 140.835,280.400 140.601 C 280.400 140.366,281.390 139.212,282.600 138.036 C 283.810 136.860,284.800 135.680,284.800 135.413 C 284.800 135.147,285.425 134.360,286.189 133.664 L 287.579 132.400 324.589 132.400 C 344.945 132.400,361.600 132.538,361.600 132.706 C 361.600 132.874,359.260 135.346,356.400 138.200 C 353.540 141.054,351.200 143.572,351.200 143.797 C 351.200 144.022,346.430 148.973,340.600 154.800 C 334.770 160.627,330.000 165.556,330.000 165.753 C 330.000 165.951,324.960 171.146,318.800 177.299 C 312.640 183.452,307.600 188.654,307.600 188.861 C 307.600 189.067,304.883 191.943,301.562 195.251 L 295.523 201.267 296.296 202.133 C 296.721 202.610,297.373 203.667,297.745 204.483 C 298.117 205.299,298.586 206.068,298.787 206.192 C 298.988 206.316,299.555 207.224,300.047 208.209 C 300.539 209.194,301.090 210.000,301.271 210.000 C 301.452 210.000,301.600 210.360,301.600 210.800 C 301.600 211.240,301.780 211.600,302.000 211.600 C 302.220 211.600,302.400 211.811,302.400 212.069 C 302.400 212.326,302.699 212.867,303.064 213.271 C 303.766 214.047,304.293 214.914,305.450 217.200 C 305.840 217.970,306.483 218.891,306.880 219.247 C 307.276 219.603,307.600 220.188,307.600 220.547 C 307.600 220.906,307.780 221.200,308.000 221.200 C 308.220 221.200,308.400 221.442,308.400 221.738 C 308.400 222.034,308.750 222.593,309.177 222.979 C 309.605 223.366,310.065 224.186,310.200 224.800 C 310.335 225.414,310.795 226.234,311.223 226.621 C 311.650 227.007,312.000 227.544,312.000 227.813 C 312.000 228.082,312.279 228.534,312.620 228.816 C 312.961 229.099,313.636 230.133,314.120 231.113 C 315.584 234.078,315.778 234.400,316.095 234.400 C 316.263 234.400,316.400 234.720,316.400 235.112 C 316.400 235.503,316.760 236.083,317.200 236.400 C 317.640 236.717,318.000 237.185,318.000 237.439 C 318.000 237.694,318.279 238.134,318.620 238.416 C 318.961 238.699,319.636 239.733,320.120 240.713 C 321.584 243.678,321.778 244.000,322.095 244.000 C 322.263 244.000,322.400 244.294,322.400 244.653 C 322.400 245.012,322.730 245.597,323.133 245.953 C 323.537 246.309,324.201 247.365,324.610 248.300 C 325.019 249.235,325.499 250.000,325.677 250.000 C 325.855 250.000,326.000 250.248,326.000 250.551 C 326.000 250.854,326.279 251.334,326.620 251.616 C 326.961 251.899,327.582 252.882,328.000 253.800 C 328.418 254.718,329.028 255.691,329.354 255.962 C 329.681 256.233,330.057 256.948,330.189 257.550 C 330.321 258.152,330.783 258.899,331.215 259.211 C 331.647 259.522,332.000 260.031,332.000 260.341 C 332.000 260.652,332.324 261.197,332.720 261.553 C 333.117 261.909,333.758 262.830,334.145 263.600 C 335.680 266.650,336.629 268.229,337.299 268.847 C 337.684 269.203,338.000 269.788,338.000 270.147 C 338.000 270.506,338.180 270.800,338.400 270.800 C 338.620 270.800,338.800 270.972,338.800 271.182 C 338.800 271.522,340.258 273.934,341.107 275.000 C 341.283 275.220,341.740 276.067,342.124 276.883 C 342.507 277.699,342.997 278.475,343.212 278.607 C 343.426 278.740,343.966 279.648,344.411 280.624 C 344.856 281.601,345.395 282.400,345.610 282.400 C 345.824 282.400,346.000 282.760,346.000 283.200 C 346.000 283.640,346.180 284.000,346.400 284.000 C 346.620 284.000,346.800 284.320,346.800 284.712 C 346.800 285.103,347.160 285.683,347.600 286.000 C 348.040 286.317,348.400 286.779,348.400 287.026 C 348.400 287.274,348.750 287.793,349.177 288.179 C 349.605 288.566,350.065 289.386,350.200 290.000 C 350.335 290.614,350.795 291.434,351.223 291.821 C 351.650 292.207,352.000 292.766,352.000 293.062 C 352.000 293.358,352.180 293.600,352.400 293.600 C 352.620 293.600,352.800 293.894,352.800 294.253 C 352.800 294.612,353.134 295.197,353.543 295.553 C 353.951 295.909,354.413 296.605,354.570 297.100 C 354.726 297.595,355.022 298.000,355.227 298.000 C 355.432 298.000,355.600 298.360,355.600 298.800 C 355.600 299.240,355.780 299.600,356.000 299.600 C 356.220 299.600,356.400 299.848,356.400 300.151 C 356.400 300.454,356.679 300.934,357.020 301.216 C 357.361 301.499,357.982 302.482,358.400 303.400 C 358.818 304.318,359.428 305.291,359.754 305.562 C 360.081 305.833,360.457 306.548,360.589 307.150 C 360.721 307.752,361.183 308.499,361.615 308.811 C 362.047 309.122,362.400 309.631,362.400 309.941 C 362.400 310.252,362.724 310.797,363.120 311.153 C 363.868 311.824,365.200 314.392,365.200 315.160 C 365.200 315.476,355.533 315.600,330.810 315.600 L 296.420 315.600 295.667 313.900 C 295.253 312.965,294.664 311.615,294.359 310.900 C 294.054 310.185,293.669 309.600,293.502 309.600 C 293.336 309.600,293.200 309.306,293.200 308.947 C 293.200 308.588,292.877 308.003,292.481 307.647 C 291.825 307.056,290.553 304.632,289.152 301.300 C 288.851 300.585,288.469 300.000,288.302 300.000 C 288.136 300.000,288.000 299.640,288.000 299.200 C 288.000 298.760,287.820 298.400,287.600 298.400 C 287.380 298.400,287.200 298.055,287.200 297.633 C 287.200 297.212,287.058 296.807,286.885 296.733 C 286.587 296.607,285.150 293.748,283.952 290.900 C 283.651 290.185,283.269 289.600,283.102 289.600 C 282.936 289.600,282.800 289.255,282.800 288.833 C 282.800 288.412,282.659 288.007,282.486 287.933 C 282.223 287.821,280.761 284.937,278.667 280.400 C 278.413 279.850,277.889 279.109,277.503 278.753 C 277.116 278.397,276.800 277.812,276.800 277.453 C 276.800 277.094,276.664 276.800,276.498 276.800 C 276.331 276.800,275.949 276.215,275.648 275.500 C 274.450 272.652,273.013 269.793,272.715 269.667 C 272.542 269.593,272.400 269.203,272.400 268.800 C 272.400 268.397,272.265 268.007,272.100 267.933 C 271.805 267.802,271.181 266.587,268.949 261.800 C 268.333 260.480,267.688 259.340,267.515 259.267 C 267.342 259.193,267.200 258.803,267.200 258.400 C 267.200 257.997,267.058 257.607,266.885 257.533 C 266.611 257.417,266.146 256.504,263.870 251.600 C 263.614 251.050,263.089 250.309,262.703 249.953 C 262.316 249.597,262.000 249.027,262.000 248.686 C 262.000 248.346,261.865 248.007,261.700 247.933 C 261.387 247.794,260.240 245.555,258.804 242.280 C 257.723 239.815,255.200 239.620,255.200 242.002 C 255.200 242.155,251.690 245.768,247.400 250.031 C 243.110 254.293,239.600 257.967,239.600 258.195 C 239.600 258.424,237.081 261.124,234.003 264.197 L 228.406 269.783 228.303 292.591 L 228.200 315.400 200.000 315.400 L 171.800 315.400 171.697 292.990 L 171.593 270.580 167.197 266.197 C 164.779 263.786,162.800 261.629,162.800 261.403 C 162.800 261.177,159.290 257.486,155.000 253.200 C 150.710 248.914,147.200 245.244,147.200 245.045 C 147.200 244.595,142.723 240.020,142.271 240.008 C 141.865 239.998,140.800 241.035,140.800 241.442 C 140.800 241.954,137.844 247.793,137.514 247.933 C 137.341 248.007,137.200 248.412,137.200 248.833 C 137.200 249.255,137.020 249.600,136.800 249.600 C 136.580 249.600,136.400 249.960,136.400 250.400 C 136.400 250.840,136.220 251.200,136.000 251.200 C 135.780 251.200,135.600 251.412,135.600 251.670 C 135.600 252.304,132.709 258.165,132.314 258.333 C 132.141 258.407,132.000 258.772,132.000 259.145 C 132.000 259.518,131.640 260.083,131.200 260.400 C 130.760 260.717,130.400 261.148,130.400 261.358 C 130.400 261.930,127.476 267.779,127.114 267.933 C 126.941 268.007,126.800 268.412,126.800 268.833 C 126.800 269.255,126.620 269.600,126.400 269.600 C 126.180 269.600,126.000 269.960,126.000 270.400 C 126.000 270.840,125.820 271.200,125.600 271.200 C 125.380 271.200,125.200 271.412,125.200 271.670 C 125.200 272.304,122.309 278.165,121.914 278.333 C 121.741 278.407,121.600 278.812,121.600 279.233 C 121.600 279.655,121.420 280.000,121.200 280.000 C 120.980 280.000,120.800 280.212,120.800 280.470 C 120.800 281.104,117.909 286.965,117.514 287.133 C 117.341 287.207,117.200 287.612,117.200 288.033 C 117.200 288.455,117.020 288.800,116.800 288.800 C 116.580 288.800,116.400 289.160,116.400 289.600 C 116.400 290.040,116.237 290.400,116.038 290.400 C 115.839 290.400,114.809 292.155,113.751 294.300 C 112.692 296.445,111.685 298.260,111.513 298.333 C 111.341 298.407,111.200 298.812,111.200 299.233 C 111.200 299.655,111.020 300.000,110.800 300.000 C 110.580 300.000,110.400 300.212,110.400 300.470 C 110.400 301.104,107.509 306.965,107.114 307.133 C 106.941 307.207,106.800 307.612,106.800 308.033 C 106.800 308.455,106.620 308.800,106.400 308.800 C 106.180 308.800,106.000 309.160,106.000 309.600 C 106.000 310.040,105.820 310.400,105.600 310.400 C 105.380 310.400,105.200 310.598,105.200 310.840 C 105.200 311.481,103.962 314.087,103.271 314.900 C 102.497 315.811,33.976 316.009,34.029 315.100 C 34.045 314.825,34.407 314.060,34.834 313.400 C 35.260 312.740,35.718 311.885,35.851 311.500 C 35.984 311.115,36.252 310.800,36.447 310.800 C 36.641 310.800,36.800 310.506,36.800 310.147 C 36.800 309.788,37.115 309.200,37.500 308.841 C 38.340 308.058,38.925 307.142,39.973 304.965 C 40.406 304.066,41.039 303.099,41.380 302.816 C 41.721 302.534,42.000 302.054,42.000 301.751 C 42.000 301.448,42.180 301.200,42.400 301.200 C 42.620 301.200,42.800 300.880,42.800 300.488 C 42.800 300.097,43.160 299.517,43.600 299.200 C 44.040 298.883,44.400 298.303,44.400 297.912 C 44.400 297.520,44.572 297.200,44.781 297.200 C 44.991 297.200,45.471 296.525,45.848 295.700 C 46.225 294.875,46.799 293.888,47.123 293.507 C 47.680 292.851,48.644 291.152,50.247 288.000 C 50.639 287.230,51.283 286.309,51.680 285.953 C 52.076 285.597,52.400 285.078,52.400 284.800 C 52.400 284.522,52.724 284.003,53.120 283.647 C 53.517 283.291,54.158 282.370,54.545 281.600 C 56.080 278.550,57.029 276.971,57.699 276.353 C 58.084 275.997,58.400 275.412,58.400 275.053 C 58.400 274.694,58.548 274.400,58.729 274.400 C 58.910 274.400,59.463 273.590,59.957 272.601 C 60.451 271.612,61.075 270.577,61.343 270.301 C 61.611 270.025,62.135 269.150,62.508 268.355 C 62.880 267.560,63.447 266.693,63.767 266.427 C 64.087 266.162,64.460 265.436,64.597 264.814 C 64.734 264.192,65.195 263.366,65.623 262.979 C 66.050 262.593,66.400 262.074,66.400 261.826 C 66.400 261.579,66.760 261.117,67.200 260.800 C 67.640 260.483,68.000 259.903,68.000 259.512 C 68.000 259.120,68.137 258.800,68.305 258.800 C 68.622 258.800,68.816 258.478,70.280 255.513 C 70.764 254.533,71.439 253.499,71.780 253.216 C 72.121 252.934,72.400 252.454,72.400 252.151 C 72.400 251.848,72.580 251.600,72.800 251.600 C 73.020 251.600,73.200 251.280,73.200 250.888 C 73.200 250.497,73.560 249.917,74.000 249.600 C 74.440 249.283,74.800 248.722,74.800 248.354 C 74.800 247.987,75.070 247.582,75.400 247.455 C 75.730 247.329,76.000 246.859,76.000 246.413 C 76.000 245.966,76.180 245.600,76.400 245.600 C 76.620 245.600,76.800 245.352,76.800 245.049 C 76.800 244.746,77.079 244.266,77.420 243.984 C 77.761 243.701,78.402 242.734,78.845 241.835 C 80.025 239.441,80.591 238.494,81.336 237.671 C 81.701 237.267,82.000 236.726,82.000 236.469 C 82.000 236.211,82.180 236.000,82.400 236.000 C 82.620 236.000,82.800 235.680,82.800 235.288 C 82.800 234.897,83.153 234.322,83.585 234.011 C 84.017 233.699,84.479 232.952,84.611 232.350 C 84.743 231.748,85.119 231.033,85.446 230.762 C 85.772 230.491,86.399 229.480,86.839 228.515 C 87.278 227.550,87.900 226.660,88.219 226.537 C 88.539 226.415,88.800 225.974,88.800 225.557 C 88.800 225.141,88.935 224.799,89.100 224.797 C 89.457 224.794,90.800 222.517,90.800 221.915 C 90.800 221.683,91.116 221.203,91.503 220.847 C 91.889 220.491,92.466 219.660,92.785 219.000 C 93.104 218.340,93.627 217.484,93.947 217.097 C 94.583 216.329,95.163 215.347,96.250 213.200 C 96.640 212.430,97.283 211.509,97.680 211.153 C 98.076 210.797,98.400 210.212,98.400 209.853 C 98.400 209.494,98.537 209.200,98.705 209.200 C 99.024 209.200,99.219 208.875,100.699 205.872 C 101.193 204.869,101.767 203.944,101.974 203.816 C 102.180 203.689,102.626 203.029,102.964 202.352 L 103.579 201.119 99.390 196.924 C 97.085 194.617,95.200 192.566,95.200 192.365 C 95.200 192.165,90.430 187.246,84.600 181.434 C 78.770 175.621,74.000 170.694,74.000 170.485 C 74.000 170.275,69.140 165.243,63.200 159.303 C 57.260 153.363,52.400 148.342,52.400 148.147 C 52.400 147.952,49.070 144.466,45.000 140.400 C 40.930 136.334,37.600 132.871,37.600 132.704 C 37.600 132.537,54.288 132.400,74.685 132.400 L 111.770 132.400 113.485 134.083 C 114.428 135.009,115.200 135.960,115.200 136.197 C 115.200 136.434,116.190 137.605,117.400 138.800 C 118.610 139.995,119.600 141.165,119.600 141.400 C 119.600 141.635,120.590 142.805,121.800 144.000 C 123.010 145.195,124.000 146.369,124.000 146.609 C 124.000 146.849,124.990 147.999,126.200 149.164 C 127.410 150.330,128.400 151.475,128.400 151.710 C 128.400 151.945,129.390 153.089,130.600 154.251 C 131.810 155.414,132.800 156.557,132.800 156.791 C 132.800 157.026,133.790 158.192,135.000 159.383 C 136.210 160.574,137.200 161.719,137.200 161.929 C 137.200 162.138,138.187 163.275,139.394 164.455 C 140.601 165.635,141.591 166.786,141.594 167.014 C 141.597 167.241,142.590 168.405,143.800 169.600 C 145.010 170.795,146.000 171.965,146.000 172.200 C 146.000 172.435,146.990 173.605,148.200 174.800 C 149.410 175.995,150.400 177.164,150.400 177.399 C 150.400 177.633,151.480 178.894,152.800 180.200 C 154.120 181.506,155.200 182.727,155.200 182.914 C 155.200 183.100,156.190 184.242,157.400 185.452 C 158.610 186.662,159.600 187.817,159.600 188.017 C 159.600 188.218,160.590 189.373,161.800 190.583 C 163.010 191.793,164.000 192.939,164.000 193.129 C 164.000 193.320,164.990 194.498,166.200 195.747 C 167.410 196.996,168.400 198.138,168.400 198.283 C 168.400 198.676,170.086 200.400,170.470 200.400 C 170.651 200.400,170.800 184.830,170.800 165.800 L 170.800 131.200 141.600 131.200 L 112.400 131.200 112.400 108.800 L 112.400 86.400 198.800 86.400 L 285.200 86.400 285.200 108.800 " stroke="none" fill="#040404" fill-rule="evenodd"></path><path id="path2" d="" stroke="none" fill="#c010080" fill-rule="evenodd"></path><path id="path3" d="M362.799 1.300 C 362.800 1.465,363.970 1.600,365.400 1.600 C 366.867 1.600,368.000 1.774,368.000 2.000 C 368.000 2.220,368.439 2.400,368.976 2.400 C 369.513 2.400,370.064 2.580,370.200 2.800 C 370.336 3.020,370.876 3.200,371.400 3.200 C 371.924 3.200,372.464 3.380,372.600 3.600 C 372.736 3.820,373.512 3.971,374.324 3.936 L 375.800 3.872 374.400 3.707 C 373.630 3.617,372.829 3.376,372.620 3.171 C 372.411 2.967,371.914 2.800,371.515 2.800 C 371.116 2.800,370.477 2.641,370.095 2.447 C 368.221 1.494,367.216 1.226,365.099 1.118 C 363.834 1.053,362.799 1.135,362.799 1.300 M32.700 1.489 C 33.415 1.578,34.585 1.578,35.300 1.489 C 36.015 1.401,35.430 1.328,34.000 1.328 C 32.570 1.328,31.985 1.401,32.700 1.489 M29.000 2.400 C 28.864 2.620,28.349 2.800,27.856 2.800 C 27.363 2.800,26.789 2.965,26.580 3.166 C 26.371 3.368,25.750 3.613,25.200 3.712 C 24.201 3.891,24.201 3.891,25.276 3.946 C 25.868 3.975,26.464 3.820,26.600 3.600 C 26.736 3.380,27.251 3.200,27.744 3.200 C 28.237 3.200,28.811 3.035,29.020 2.834 C 29.229 2.632,29.850 2.387,30.400 2.288 C 31.399 2.109,31.399 2.109,30.324 2.054 C 29.732 2.025,29.136 2.180,29.000 2.400 M18.600 6.787 C 17.720 7.203,16.190 8.412,15.200 9.472 L 13.400 11.400 15.400 9.563 C 16.500 8.552,18.075 7.419,18.900 7.044 C 19.725 6.669,20.400 6.281,20.400 6.181 C 20.400 5.934,20.406 5.932,18.600 6.787 M380.504 7.139 C 381.332 7.531,382.682 8.470,383.504 9.226 L 385.000 10.600 383.603 9.081 C 382.251 7.610,380.339 6.386,379.439 6.414 C 379.197 6.421,379.677 6.748,380.504 7.139 M387.700 12.612 C 388.965 13.938,390.000 15.206,390.000 15.430 C 390.000 15.654,390.720 16.541,391.600 17.400 C 392.480 18.259,393.200 19.185,393.200 19.458 C 393.200 19.730,393.363 20.054,393.563 20.177 C 394.514 20.765,393.353 18.721,391.966 17.367 C 391.105 16.526,390.400 15.644,390.400 15.406 C 390.400 15.169,389.275 13.901,387.900 12.587 L 385.400 10.200 387.700 12.612 M11.074 12.724 C 10.263 13.554,9.600 14.415,9.600 14.636 C 9.600 14.857,8.880 15.741,8.000 16.600 C 7.120 17.459,6.400 18.337,6.400 18.550 C 6.400 18.763,6.085 19.311,5.700 19.769 C 5.001 20.599,5.001 20.599,5.900 19.838 C 6.395 19.419,6.800 18.870,6.800 18.619 C 6.800 18.368,7.520 17.459,8.400 16.600 C 9.280 15.741,10.000 14.827,10.000 14.570 C 10.000 14.312,10.660 13.538,11.466 12.850 C 12.272 12.161,12.845 11.512,12.740 11.406 C 12.634 11.301,11.885 11.894,11.074 12.724 M4.229 22.461 C 3.883 23.155,3.601 23.920,3.602 24.161 C 3.605 24.603,4.414 23.202,4.909 21.900 C 5.349 20.743,4.903 21.111,4.229 22.461 M396.860 26.476 C 396.827 27.288,396.980 28.064,397.200 28.200 C 397.420 28.336,397.621 28.932,397.646 29.524 C 397.680 30.293,397.748 30.385,397.886 29.847 C 397.992 29.434,397.888 28.714,397.654 28.247 C 397.420 27.781,397.159 26.860,397.074 26.200 C 396.936 25.124,396.914 25.153,396.860 26.476 M2.046 26.876 C 2.021 27.468,1.820 28.064,1.600 28.200 C 1.380 28.336,1.227 29.112,1.260 29.924 C 1.314 31.247,1.336 31.276,1.474 30.200 C 1.559 29.540,1.820 28.619,2.054 28.153 C 2.288 27.686,2.392 26.966,2.286 26.553 C 2.148 26.015,2.080 26.107,2.046 26.876 M398.400 31.800 C 398.400 32.350,398.555 32.800,398.745 32.800 C 398.934 32.800,399.003 32.350,398.898 31.800 C 398.793 31.250,398.638 30.800,398.553 30.800 C 398.469 30.800,398.400 31.250,398.400 31.800 M112.497 108.700 L 112.600 131.000 141.700 131.103 L 170.800 131.205 170.800 165.803 C 170.800 184.831,170.651 200.400,170.470 200.400 C 170.044 200.400,168.567 198.780,168.282 198.000 C 168.094 197.483,168.059 197.487,168.032 198.025 C 167.986 198.936,170.307 201.053,170.805 200.555 C 171.066 200.294,171.169 188.211,171.102 165.578 L 171.000 131.000 141.900 130.897 L 112.800 130.795 112.800 108.798 L 112.800 86.802 199.100 86.700 L 285.400 86.598 198.897 86.499 L 112.393 86.400 112.497 108.700 M226.667 131.067 C 226.520 131.213,226.403 131.528,226.406 131.767 C 226.410 132.026,226.539 132.000,226.728 131.703 C 226.974 131.315,233.492 131.182,256.222 131.100 L 285.400 130.995 256.167 130.897 C 240.088 130.844,226.813 130.920,226.667 131.067 M37.600 132.781 C 37.600 132.906,40.930 136.334,45.000 140.400 C 49.070 144.466,52.414 148.064,52.432 148.396 C 52.456 148.861,52.513 148.876,52.678 148.460 C 52.810 148.130,49.921 144.934,45.247 140.237 C 41.041 136.011,37.600 132.656,37.600 132.781 M228.191 166.800 C 228.191 185.830,228.240 193.615,228.300 184.100 C 228.360 174.585,228.360 159.015,228.300 149.500 C 228.240 139.985,228.191 147.770,228.191 166.800 M356.207 138.000 L 351.015 143.400 356.390 138.116 C 359.346 135.209,361.683 132.779,361.582 132.716 C 361.482 132.652,359.063 135.030,356.207 138.000 M112.815 133.798 C 113.734 135.053,114.422 135.711,114.615 135.518 C 114.712 135.421,114.215 134.815,113.511 134.171 C 112.807 133.527,112.494 133.359,112.815 133.798 M116.900 138.612 C 118.165 139.938,119.200 141.204,119.200 141.425 C 119.200 141.646,120.190 142.805,121.400 144.000 C 122.610 145.195,123.600 146.365,123.600 146.600 C 123.600 146.835,124.590 148.005,125.800 149.200 C 127.010 150.395,128.000 151.566,128.000 151.801 C 128.000 152.037,128.917 153.123,130.037 154.215 C 131.158 155.307,132.227 156.560,132.412 157.000 C 132.711 157.708,132.752 157.717,132.775 157.080 C 132.789 156.683,131.810 155.446,130.600 154.330 C 129.390 153.214,128.400 152.092,128.400 151.837 C 128.400 151.582,127.410 150.395,126.200 149.200 C 124.990 148.005,124.000 146.835,124.000 146.600 C 124.000 146.365,123.010 145.195,121.800 144.000 C 120.590 142.805,119.600 141.636,119.600 141.401 C 119.600 141.167,118.475 139.901,117.100 138.587 L 114.600 136.200 116.900 138.612 M281.270 139.326 C 280.791 139.835,280.400 140.426,280.400 140.639 C 280.400 140.853,279.410 142.005,278.200 143.200 C 276.990 144.395,276.000 145.565,276.000 145.800 C 276.000 146.035,275.010 147.205,273.800 148.400 C 272.590 149.595,271.600 150.765,271.600 151.000 C 271.600 151.235,270.610 152.405,269.400 153.600 C 268.190 154.795,267.200 155.949,267.200 156.164 C 267.200 156.379,266.210 157.514,265.000 158.686 C 263.790 159.858,262.811 161.128,262.825 161.508 C 262.847 162.088,262.905 162.071,263.188 161.400 C 263.373 160.960,264.442 159.707,265.563 158.615 C 266.683 157.523,267.600 156.437,267.600 156.201 C 267.600 155.966,268.590 154.795,269.800 153.600 C 271.010 152.405,272.000 151.235,272.000 151.000 C 272.000 150.765,272.990 149.595,274.200 148.400 C 275.410 147.205,276.400 146.035,276.400 145.800 C 276.400 145.565,277.390 144.395,278.600 143.200 C 279.810 142.005,280.800 140.796,280.800 140.514 C 280.800 140.231,280.937 140.000,281.104 140.000 C 281.271 140.000,281.632 139.640,281.907 139.200 C 282.567 138.143,282.338 138.188,281.270 139.326 M340.215 154.785 C 334.287 160.716,329.518 165.621,329.618 165.685 C 329.718 165.748,334.656 160.895,340.592 154.900 C 346.527 148.905,351.296 144.000,351.189 144.000 C 351.082 144.000,346.144 148.853,340.215 154.785 M55.796 151.996 C 56.426 152.654,57.019 153.114,57.113 153.020 C 57.322 152.812,55.356 150.800,54.943 150.800 C 54.782 150.800,55.166 151.338,55.796 151.996 M60.996 157.196 C 61.626 157.854,62.219 158.314,62.313 158.220 C 62.522 158.012,60.556 156.000,60.143 156.000 C 59.982 156.000,60.366 156.538,60.996 157.196 M65.802 162.002 C 66.202 162.444,66.611 162.722,66.712 162.621 C 66.928 162.405,65.788 161.200,65.367 161.200 C 65.207 161.200,65.403 161.561,65.802 162.002 M137.600 162.943 C 137.600 163.356,139.612 165.322,139.820 165.113 C 139.914 165.019,139.454 164.426,138.796 163.796 C 138.138 163.166,137.600 162.782,137.600 162.943 M71.002 167.202 C 71.402 167.644,71.811 167.922,71.912 167.821 C 72.128 167.605,70.988 166.400,70.567 166.400 C 70.407 166.400,70.603 166.761,71.002 167.202 M141.232 166.813 C 141.214 167.149,142.325 168.499,143.700 169.813 L 146.200 172.200 143.947 169.800 C 142.708 168.480,141.597 167.130,141.478 166.800 C 141.290 166.275,141.259 166.277,141.232 166.813 M328.460 167.042 C 328.162 167.378,327.999 167.732,328.095 167.829 C 328.192 167.926,328.598 167.644,328.998 167.202 C 329.397 166.761,329.561 166.407,329.362 166.415 C 329.163 166.424,328.757 166.705,328.460 167.042 M255.796 169.204 C 255.166 169.862,254.782 170.400,254.943 170.400 C 255.356 170.400,257.322 168.388,257.113 168.180 C 257.019 168.086,256.426 168.546,255.796 169.204 M323.660 171.851 C 323.143 172.402,322.796 172.929,322.889 173.022 C 322.982 173.115,323.574 172.654,324.204 171.996 C 324.834 171.338,325.181 170.811,324.975 170.824 C 324.769 170.838,324.177 171.300,323.660 171.851 M251.586 174.300 L 249.400 176.600 251.700 174.414 C 253.837 172.382,254.183 172.000,253.886 172.000 C 253.824 172.000,252.789 173.035,251.586 174.300 M148.000 175.000 C 149.195 176.210,150.263 177.200,150.373 177.200 C 150.483 177.200,149.595 176.210,148.400 175.000 C 147.205 173.790,146.137 172.800,146.027 172.800 C 145.917 172.800,146.805 173.790,148.000 175.000 M77.600 174.167 C 77.600 174.588,78.805 175.728,79.021 175.512 C 79.122 175.411,78.844 175.002,78.402 174.602 C 77.961 174.203,77.600 174.007,77.600 174.167 M318.860 176.642 C 318.562 176.978,318.399 177.332,318.495 177.429 C 318.592 177.526,318.998 177.244,319.398 176.802 C 319.797 176.361,319.961 176.007,319.762 176.015 C 319.563 176.024,319.157 176.305,318.860 176.642 M247.186 179.500 L 245.000 181.800 247.300 179.614 C 249.437 177.582,249.783 177.200,249.486 177.200 C 249.424 177.200,248.389 178.235,247.186 179.500 M152.400 180.200 C 153.595 181.410,154.663 182.400,154.773 182.400 C 154.883 182.400,153.995 181.410,152.800 180.200 C 151.605 178.990,150.537 178.000,150.427 178.000 C 150.317 178.000,151.205 178.990,152.400 180.200 M313.660 181.842 C 313.362 182.178,313.199 182.532,313.295 182.629 C 313.392 182.726,313.798 182.444,314.198 182.002 C 314.597 181.561,314.761 181.207,314.562 181.215 C 314.363 181.224,313.957 181.505,313.660 181.842 M242.687 184.712 C 241.429 185.983,240.400 187.199,240.400 187.415 C 240.400 187.630,239.410 188.777,238.200 189.964 C 236.990 191.151,236.011 192.409,236.025 192.761 C 236.044 193.235,236.138 193.193,236.388 192.600 C 236.573 192.160,237.642 190.907,238.763 189.815 C 239.883 188.723,240.800 187.649,240.800 187.427 C 240.800 187.205,241.829 185.983,243.087 184.712 C 244.346 183.440,245.285 182.400,245.175 182.400 C 245.065 182.400,243.946 183.440,242.687 184.712 M156.853 185.400 C 158.092 186.720,159.203 188.070,159.322 188.400 C 159.510 188.925,159.541 188.923,159.568 188.387 C 159.586 188.051,158.475 186.701,157.100 185.387 L 154.600 183.000 156.853 185.400 M87.200 183.767 C 87.200 184.188,88.405 185.328,88.621 185.112 C 88.722 185.011,88.444 184.602,88.002 184.202 C 87.561 183.803,87.200 183.607,87.200 183.767 M308.460 187.042 C 308.162 187.378,307.999 187.732,308.095 187.829 C 308.192 187.926,308.598 187.644,308.998 187.202 C 309.397 186.761,309.561 186.407,309.362 186.415 C 309.163 186.424,308.757 186.705,308.460 187.042 M307.246 188.451 C 307.221 188.809,306.926 189.330,306.590 189.608 C 306.255 189.886,306.066 190.200,306.171 190.305 C 306.558 190.691,307.652 189.176,307.476 188.499 C 307.321 187.909,307.286 187.901,307.246 188.451 M92.400 188.967 C 92.400 189.388,93.605 190.528,93.821 190.312 C 93.922 190.211,93.644 189.802,93.202 189.402 C 92.761 189.003,92.400 188.807,92.400 188.967 M161.402 190.802 C 161.802 191.244,162.211 191.522,162.312 191.421 C 162.528 191.205,161.388 190.000,160.967 190.000 C 160.807 190.000,161.003 190.361,161.402 190.802 M95.114 192.232 C 95.551 193.013,104.000 201.569,104.000 201.231 C 104.000 201.096,102.110 199.102,99.800 196.800 C 97.490 194.498,95.600 192.386,95.600 192.107 C 95.600 191.828,95.411 191.600,95.180 191.600 C 94.915 191.600,94.891 191.833,95.114 192.232 M163.632 192.929 C 163.614 193.329,163.857 193.914,164.171 194.229 C 164.988 195.045,165.443 194.937,164.714 194.100 C 164.379 193.715,164.005 193.130,163.884 192.800 C 163.714 192.339,163.656 192.369,163.632 192.929 M301.402 194.798 C 301.003 195.239,300.807 195.600,300.967 195.600 C 301.388 195.600,302.528 194.395,302.312 194.179 C 302.211 194.078,301.802 194.356,301.402 194.798 M232.860 195.842 C 232.562 196.178,232.399 196.532,232.495 196.629 C 232.592 196.726,232.998 196.444,233.398 196.002 C 233.797 195.561,233.961 195.207,233.762 195.215 C 233.563 195.224,233.157 195.505,232.860 195.842 M231.646 197.251 C 231.621 197.609,231.326 198.130,230.990 198.408 C 230.655 198.686,230.466 199.000,230.571 199.105 C 230.958 199.491,232.052 197.976,231.876 197.299 C 231.721 196.709,231.686 196.701,231.646 197.251 M296.596 199.604 C 295.966 200.262,295.582 200.800,295.743 200.800 C 296.156 200.800,298.122 198.788,297.913 198.580 C 297.819 198.486,297.226 198.946,296.596 199.604 M296.033 202.207 C 296.381 202.643,296.963 203.650,297.326 204.445 C 297.688 205.240,298.259 206.117,298.593 206.394 C 298.927 206.671,299.200 207.135,299.200 207.425 C 299.200 207.715,299.378 208.063,299.595 208.197 C 300.164 208.549,299.616 207.160,298.806 206.200 C 298.435 205.760,297.835 204.750,297.473 203.955 C 297.111 203.160,296.496 202.264,296.107 201.962 C 295.446 201.449,295.441 201.465,296.033 202.207 M102.832 202.451 C 102.814 202.809,102.527 203.329,102.193 203.606 C 101.859 203.883,101.288 204.760,100.926 205.555 C 100.563 206.350,99.981 207.357,99.633 207.793 C 99.041 208.535,99.046 208.551,99.707 208.038 C 100.096 207.736,100.711 206.840,101.073 206.045 C 101.435 205.250,102.081 204.208,102.509 203.729 C 102.936 203.249,103.191 202.619,103.074 202.329 C 102.926 201.958,102.854 201.994,102.832 202.451 M98.400 210.000 C 98.400 210.440,98.220 210.800,98.000 210.800 C 97.780 210.800,97.600 211.002,97.600 211.249 C 97.600 211.575,97.753 211.571,98.157 211.236 C 98.830 210.677,99.270 209.200,98.763 209.200 C 98.563 209.200,98.400 209.560,98.400 210.000 M96.442 212.883 C 96.135 213.607,95.595 214.560,95.242 215.000 C 94.606 215.793,94.608 215.793,95.500 215.038 C 95.995 214.619,96.400 214.049,96.400 213.771 C 96.400 213.494,96.601 213.200,96.846 213.118 C 97.091 213.036,97.226 212.654,97.146 212.268 C 97.039 211.755,96.850 211.920,96.442 212.883 M302.025 212.038 C 302.011 212.389,302.360 213.002,302.800 213.400 C 303.240 213.798,303.600 214.338,303.600 214.600 C 303.600 214.862,304.005 215.419,304.500 215.838 C 305.399 216.599,305.399 216.599,304.700 215.769 C 304.315 215.311,304.000 214.748,304.000 214.517 C 304.000 214.287,303.710 213.857,303.355 213.563 C 303.001 213.269,302.562 212.662,302.381 212.214 C 302.143 211.627,302.044 211.578,302.025 212.038 M93.929 217.100 C 93.602 217.485,93.037 218.450,92.674 219.245 C 92.312 220.040,91.741 220.917,91.407 221.194 C 91.073 221.471,90.811 221.991,90.825 222.349 C 90.843 222.810,90.952 222.749,91.197 222.141 C 91.388 221.668,91.732 221.166,91.961 221.024 C 92.191 220.882,92.684 220.099,93.056 219.283 C 93.429 218.467,94.002 217.485,94.329 217.100 C 94.656 216.715,94.834 216.400,94.724 216.400 C 94.614 216.400,94.256 216.715,93.929 217.100 M306.407 219.358 C 306.733 219.776,307.309 220.766,307.686 221.558 C 308.245 222.732,308.375 222.832,308.386 222.100 C 308.394 221.605,308.220 221.200,308.000 221.200 C 307.780 221.200,307.600 220.958,307.600 220.662 C 307.600 220.366,307.198 219.781,306.707 219.362 C 305.837 218.620,305.829 218.620,306.407 219.358 M310.900 226.631 C 311.285 227.089,311.600 227.652,311.600 227.883 C 311.600 228.113,311.879 228.534,312.220 228.816 C 312.561 229.099,313.182 230.082,313.600 231.000 C 314.018 231.918,314.684 232.921,315.080 233.228 C 315.756 233.752,315.761 233.738,315.167 232.993 C 314.819 232.557,314.237 231.550,313.874 230.755 C 313.512 229.960,312.941 229.083,312.607 228.806 C 312.273 228.529,312.000 228.082,312.000 227.813 C 312.000 227.544,311.595 226.981,311.100 226.562 C 310.201 225.801,310.201 225.801,310.900 226.631 M86.830 228.521 C 86.529 229.225,85.995 230.157,85.642 230.593 C 85.040 231.337,85.044 231.352,85.707 230.838 C 86.449 230.263,87.824 227.690,87.541 227.407 C 87.450 227.317,87.130 227.818,86.830 228.521 M83.500 234.157 C 83.115 234.449,82.814 235.028,82.832 235.444 C 82.855 236.009,82.919 236.048,83.084 235.600 C 83.205 235.270,83.579 234.685,83.914 234.300 C 84.634 233.473,84.474 233.418,83.500 234.157 M317.632 237.238 C 317.614 237.589,317.960 238.202,318.400 238.600 C 318.840 238.998,319.200 239.555,319.200 239.838 C 319.200 240.121,319.378 240.463,319.595 240.597 C 320.174 240.955,319.608 239.547,318.791 238.600 C 318.412 238.160,318.003 237.530,317.882 237.200 C 317.696 236.691,317.658 236.697,317.632 237.238 M80.873 238.087 C 80.613 238.347,80.400 238.735,80.400 238.949 C 80.400 239.162,80.085 239.711,79.700 240.169 C 79.001 240.999,79.001 240.999,79.900 240.238 C 80.395 239.819,80.800 239.249,80.800 238.971 C 80.800 238.694,81.025 238.386,81.300 238.288 C 81.575 238.190,81.698 237.998,81.573 237.861 C 81.449 237.725,81.134 237.826,80.873 238.087 M141.149 240.264 C 140.647 240.872,140.676 240.881,141.495 240.371 C 142.387 239.816,147.200 243.714,147.200 244.991 C 147.200 245.220,150.710 248.914,155.000 253.200 C 159.290 257.486,162.800 261.177,162.800 261.403 C 162.800 261.629,164.779 263.786,167.197 266.197 L 171.593 270.580 171.697 292.990 L 171.800 315.400 200.000 315.400 L 228.200 315.400 228.303 292.591 L 228.406 269.783 234.003 264.197 C 237.081 261.124,239.600 258.430,239.600 258.209 C 239.600 257.988,243.065 254.296,247.300 250.004 L 255.000 242.200 247.100 249.996 C 242.755 254.284,239.200 257.976,239.200 258.202 C 239.200 258.427,236.680 261.126,233.600 264.200 L 228.000 269.789 228.000 292.495 L 228.000 315.200 200.000 315.200 L 172.000 315.200 172.000 292.893 L 172.000 270.586 167.600 266.200 C 165.180 263.788,163.200 261.629,163.200 261.403 C 163.200 261.177,159.690 257.486,155.400 253.200 C 151.110 248.914,147.600 245.221,147.600 244.992 C 147.600 244.438,142.700 239.600,142.138 239.600 C 141.896 239.600,141.451 239.899,141.149 240.264 M255.570 240.688 C 254.854 241.491,254.809 241.622,255.400 241.188 C 255.840 240.865,256.317 240.439,256.460 240.242 C 256.885 239.655,257.984 240.306,258.396 241.390 C 258.824 242.515,259.318 242.804,258.927 241.700 C 258.148 239.506,256.947 239.143,255.570 240.688 M78.415 242.561 C 78.214 243.090,77.870 243.633,77.650 243.769 C 77.165 244.069,75.995 246.352,76.014 246.961 C 76.021 247.203,76.340 246.740,76.722 245.932 C 77.105 245.125,77.701 244.135,78.048 243.732 C 78.718 242.955,79.308 241.600,78.978 241.600 C 78.869 241.600,78.616 242.033,78.415 242.561 M320.433 242.207 C 320.781 242.643,321.363 243.650,321.726 244.445 C 322.088 245.240,322.659 246.117,322.993 246.394 C 323.327 246.671,323.600 247.146,323.600 247.449 C 323.600 247.752,323.786 248.000,324.014 248.000 C 324.482 248.000,323.954 246.820,323.087 245.931 C 322.803 245.639,322.265 244.750,321.892 243.955 C 321.520 243.160,320.896 242.264,320.507 241.962 C 319.846 241.449,319.841 241.465,320.433 242.207 M138.636 245.279 C 138.066 246.422,137.601 247.547,137.602 247.779 C 137.603 248.182,139.183 245.264,139.718 243.869 C 140.255 242.470,139.629 243.285,138.636 245.279 M260.283 245.479 C 261.054 247.508,261.595 248.257,261.598 247.300 C 261.599 246.805,261.420 246.400,261.200 246.400 C 260.980 246.400,260.800 246.141,260.800 245.824 C 260.800 245.507,260.622 245.137,260.405 245.003 C 260.166 244.856,260.118 245.045,260.283 245.479 M136.690 248.600 C 136.538 249.040,136.233 249.814,136.012 250.320 C 135.752 250.916,135.750 251.154,136.005 250.997 C 136.222 250.863,136.400 250.508,136.400 250.210 C 136.400 249.911,136.601 249.600,136.846 249.518 C 137.091 249.436,137.218 249.016,137.129 248.585 C 136.970 247.812,136.963 247.813,136.690 248.600 M262.032 248.438 C 262.014 248.789,262.360 249.402,262.800 249.800 C 263.240 250.198,263.600 250.755,263.600 251.038 C 263.600 251.321,263.778 251.663,263.995 251.797 C 264.574 252.155,264.008 250.747,263.191 249.800 C 262.812 249.360,262.403 248.730,262.282 248.400 C 262.096 247.891,262.058 247.897,262.032 248.438 M326.433 251.807 C 326.781 252.243,327.363 253.250,327.726 254.045 C 328.088 254.840,328.659 255.717,328.993 255.994 C 329.327 256.271,329.600 256.735,329.600 257.025 C 329.600 257.315,329.778 257.663,329.995 257.797 C 330.564 258.149,330.016 256.760,329.206 255.800 C 328.835 255.360,328.235 254.350,327.873 253.555 C 327.511 252.760,326.896 251.864,326.507 251.562 C 325.846 251.049,325.841 251.065,326.433 251.807 M72.432 252.051 C 72.414 252.409,72.127 252.929,71.793 253.206 C 71.459 253.483,70.888 254.360,70.526 255.155 C 70.163 255.950,69.581 256.957,69.233 257.393 C 68.641 258.135,68.646 258.151,69.307 257.638 C 69.696 257.336,70.311 256.440,70.673 255.645 C 71.035 254.850,71.681 253.808,72.109 253.329 C 72.536 252.849,72.791 252.219,72.674 251.929 C 72.526 251.558,72.454 251.594,72.432 252.051 M133.829 254.861 C 133.483 255.555,133.201 256.320,133.202 256.561 C 133.205 257.003,134.014 255.602,134.509 254.300 C 134.949 253.143,134.503 253.511,133.829 254.861 M265.483 255.079 C 266.254 257.108,266.795 257.857,266.798 256.900 C 266.799 256.405,266.620 256.000,266.400 256.000 C 266.180 256.000,266.000 255.741,266.000 255.424 C 266.000 255.107,265.822 254.737,265.605 254.603 C 265.366 254.456,265.318 254.645,265.483 255.079 M267.202 258.300 C 267.201 258.795,267.380 259.200,267.600 259.200 C 267.820 259.200,268.000 259.459,268.000 259.776 C 268.000 260.093,268.178 260.463,268.395 260.597 C 268.826 260.863,268.574 260.038,267.724 258.400 C 267.215 257.420,267.205 257.418,267.202 258.300 M131.600 258.869 C 131.600 259.126,131.285 259.692,130.900 260.125 C 130.219 260.892,130.224 260.899,131.100 260.360 C 131.868 259.889,132.399 258.400,131.800 258.400 C 131.690 258.400,131.600 258.611,131.600 258.869 M68.116 259.600 C 68.001 260.040,67.748 260.400,67.553 260.400 C 67.359 260.400,67.200 260.602,67.200 260.849 C 67.200 261.550,68.275 260.522,68.519 259.587 C 68.633 259.154,68.635 258.800,68.525 258.800 C 68.415 258.800,68.231 259.160,68.116 259.600 M66.446 261.651 C 66.421 262.009,66.126 262.530,65.790 262.808 C 65.455 263.086,65.266 263.400,65.371 263.505 C 65.758 263.891,66.852 262.376,66.676 261.699 C 66.521 261.109,66.486 261.101,66.446 261.651 M128.635 264.504 C 127.846 266.100,127.201 267.585,127.201 267.804 C 127.202 268.175,129.601 263.616,130.132 262.234 C 130.739 260.650,129.939 261.864,128.635 264.504 M333.214 262.239 C 333.191 262.957,334.365 265.075,335.108 265.658 C 335.746 266.157,335.753 266.140,335.200 265.442 C 334.870 265.024,334.291 264.034,333.914 263.242 C 333.536 262.449,333.221 261.997,333.214 262.239 M269.891 263.900 C 270.386 265.202,271.195 266.603,271.198 266.161 C 271.200 265.663,270.024 263.200,269.783 263.200 C 269.696 263.200,269.745 263.515,269.891 263.900 M63.529 266.700 C 63.202 267.085,62.637 268.050,62.274 268.845 C 61.912 269.640,61.341 270.517,61.007 270.794 C 60.673 271.071,60.411 271.591,60.425 271.949 C 60.443 272.410,60.552 272.349,60.797 271.741 C 60.988 271.268,61.332 270.766,61.561 270.624 C 61.791 270.482,62.284 269.699,62.656 268.883 C 63.029 268.067,63.602 267.085,63.929 266.700 C 64.256 266.315,64.434 266.000,64.324 266.000 C 64.214 266.000,63.856 266.315,63.529 266.700 M335.865 267.479 C 336.006 267.876,336.405 268.530,336.752 268.932 C 337.099 269.335,337.695 270.325,338.078 271.132 C 338.638 272.315,338.775 272.425,338.786 271.700 C 338.794 271.205,338.620 270.800,338.400 270.800 C 338.180 270.800,338.000 270.558,338.000 270.262 C 338.000 269.966,337.640 269.398,337.200 269.000 C 336.760 268.602,336.400 268.045,336.400 267.762 C 336.400 267.479,336.222 267.137,336.005 267.003 C 335.769 266.857,335.713 267.050,335.865 267.479 M272.402 268.239 C 272.400 268.737,273.576 271.200,273.817 271.200 C 274.012 271.200,273.613 270.128,272.924 268.800 C 272.638 268.250,272.404 267.997,272.402 268.239 M123.836 274.079 C 123.266 275.222,122.801 276.347,122.802 276.579 C 122.803 276.982,124.383 274.064,124.918 272.669 C 125.455 271.270,124.829 272.085,123.836 274.079 M275.083 274.279 C 275.854 276.308,276.395 277.057,276.398 276.100 C 276.399 275.605,276.220 275.200,276.000 275.200 C 275.780 275.200,275.600 274.941,275.600 274.624 C 275.600 274.307,275.422 273.937,275.205 273.803 C 274.966 273.656,274.918 273.845,275.083 274.279 M341.215 275.439 C 341.195 276.032,342.359 278.328,342.826 278.616 C 343.033 278.744,343.553 279.618,343.981 280.559 C 344.410 281.500,345.084 282.521,345.480 282.828 C 346.156 283.352,346.161 283.338,345.567 282.593 C 345.219 282.157,344.629 281.133,344.256 280.317 C 343.884 279.501,343.404 278.726,343.190 278.594 C 342.977 278.462,342.448 277.599,342.016 276.677 C 341.583 275.755,341.223 275.197,341.215 275.439 M56.430 278.121 C 56.129 278.825,55.595 279.757,55.242 280.193 C 54.640 280.937,54.644 280.952,55.307 280.438 C 56.049 279.863,57.424 277.290,57.141 277.007 C 57.050 276.917,56.730 277.418,56.430 278.121 M276.832 277.412 C 276.814 277.858,277.160 278.483,277.600 278.800 C 278.040 279.117,278.400 279.596,278.400 279.865 C 278.400 280.133,278.578 280.463,278.795 280.597 C 279.374 280.955,278.808 279.547,277.991 278.600 C 277.612 278.160,277.203 277.530,277.082 277.200 C 276.927 276.776,276.854 276.838,276.832 277.412 M118.636 284.479 C 118.066 285.622,117.601 286.747,117.602 286.979 C 117.603 287.382,119.183 284.464,119.718 283.069 C 120.255 281.670,119.629 282.485,118.636 284.479 M53.021 283.977 C 52.634 284.404,52.412 284.989,52.527 285.277 C 52.689 285.680,52.744 285.669,52.768 285.231 C 52.786 284.919,53.098 284.334,53.462 283.931 C 53.826 283.529,54.034 283.200,53.924 283.200 C 53.814 283.200,53.408 283.550,53.021 283.977 M280.291 283.900 C 280.786 285.202,281.595 286.603,281.598 286.161 C 281.600 285.663,280.424 283.200,280.183 283.200 C 280.096 283.200,280.145 283.515,280.291 283.900 M348.032 286.838 C 348.014 287.189,348.360 287.802,348.800 288.200 C 349.240 288.598,349.600 289.155,349.600 289.438 C 349.600 289.721,349.778 290.063,349.995 290.197 C 350.574 290.555,350.008 289.147,349.191 288.200 C 348.812 287.760,348.403 287.130,348.282 286.800 C 348.096 286.291,348.058 286.297,348.032 286.838 M282.802 288.700 C 282.801 289.195,282.980 289.600,283.200 289.600 C 283.420 289.600,283.600 289.859,283.600 290.176 C 283.600 290.493,283.778 290.863,283.995 290.997 C 284.426 291.263,284.174 290.438,283.324 288.800 C 282.815 287.820,282.805 287.818,282.802 288.700 M48.015 292.161 C 47.814 292.690,47.463 293.237,47.235 293.378 C 47.008 293.519,46.516 294.301,46.144 295.117 C 45.771 295.933,45.181 296.957,44.833 297.393 C 44.241 298.135,44.246 298.151,44.907 297.638 C 45.296 297.336,45.911 296.440,46.273 295.645 C 46.635 294.850,47.235 293.840,47.606 293.400 C 48.314 292.560,48.915 291.200,48.578 291.200 C 48.469 291.200,48.216 291.633,48.015 292.161 M350.833 291.807 C 351.181 292.243,351.763 293.250,352.126 294.045 C 352.488 294.840,353.059 295.717,353.393 295.994 C 353.727 296.271,354.000 296.746,354.000 297.049 C 354.000 297.352,354.186 297.600,354.414 297.600 C 354.882 297.600,354.354 296.420,353.487 295.531 C 353.203 295.239,352.665 294.350,352.292 293.555 C 351.920 292.760,351.296 291.864,350.907 291.562 C 350.246 291.049,350.241 291.065,350.833 291.807 M113.436 294.079 C 112.866 295.222,112.401 296.347,112.402 296.579 C 112.403 296.982,113.983 294.064,114.518 292.669 C 115.055 291.270,114.429 292.085,113.436 294.079 M285.483 294.279 C 286.254 296.308,286.795 297.057,286.798 296.100 C 286.799 295.605,286.620 295.200,286.400 295.200 C 286.180 295.200,286.000 294.941,286.000 294.624 C 286.000 294.307,285.822 293.937,285.605 293.803 C 285.366 293.656,285.318 293.845,285.483 294.279 M287.202 297.500 C 287.201 297.995,287.380 298.400,287.600 298.400 C 287.820 298.400,288.000 298.659,288.000 298.976 C 288.000 299.293,288.178 299.663,288.395 299.797 C 288.826 300.063,288.574 299.238,287.724 297.600 C 287.215 296.620,287.205 296.618,287.202 297.500 M356.025 300.051 C 356.011 300.409,356.279 300.934,356.620 301.216 C 356.961 301.499,357.582 302.482,358.000 303.400 C 358.418 304.318,359.084 305.321,359.480 305.628 C 360.156 306.152,360.161 306.138,359.567 305.393 C 359.219 304.957,358.629 303.933,358.256 303.117 C 357.884 302.301,357.391 301.518,357.161 301.376 C 356.932 301.234,356.588 300.732,356.397 300.259 C 356.152 299.651,356.043 299.590,356.025 300.051 M108.635 303.704 C 107.846 305.300,107.201 306.785,107.201 307.004 C 107.202 307.375,109.601 302.816,110.132 301.434 C 110.739 299.850,109.939 301.064,108.635 303.704 M42.032 301.638 C 42.014 301.989,41.658 302.586,41.240 302.964 C 40.464 303.666,39.779 305.384,40.437 304.977 C 40.637 304.854,40.800 304.550,40.800 304.302 C 40.800 304.054,41.179 303.448,41.643 302.954 C 42.106 302.461,42.391 301.819,42.274 301.529 C 42.124 301.152,42.054 301.183,42.032 301.638 M289.882 303.069 C 290.735 305.291,291.997 307.337,291.998 306.500 C 291.999 306.005,291.862 305.600,291.694 305.600 C 291.526 305.600,291.077 304.880,290.696 304.000 C 290.030 302.465,289.352 301.689,289.882 303.069 M39.062 306.731 C 38.698 307.134,38.400 307.646,38.400 307.870 C 38.400 308.093,38.040 308.602,37.600 309.000 C 37.160 309.398,36.811 310.011,36.825 310.362 C 36.844 310.822,36.943 310.773,37.181 310.186 C 37.362 309.738,37.801 309.131,38.155 308.837 C 38.510 308.543,38.800 308.113,38.800 307.883 C 38.800 307.652,39.098 307.134,39.462 306.731 C 39.826 306.329,40.034 306.000,39.924 306.000 C 39.814 306.000,39.426 306.329,39.062 306.731 M361.286 309.100 C 361.621 309.485,361.995 310.070,362.116 310.400 C 362.286 310.861,362.344 310.831,362.368 310.271 C 362.386 309.871,362.143 309.286,361.829 308.971 C 361.012 308.155,360.557 308.263,361.286 309.100 M103.930 313.100 L 102.999 315.000 68.824 315.102 C 41.765 315.183,34.576 315.100,34.295 314.702 C 34.030 314.328,33.981 314.353,34.103 314.800 C 34.317 315.585,102.124 315.927,103.064 315.147 C 103.367 314.896,103.912 314.040,104.275 313.245 C 104.638 312.450,105.005 311.665,105.091 311.500 C 105.177 311.335,105.160 311.200,105.054 311.200 C 104.948 311.200,104.442 312.055,103.930 313.100 M363.602 312.300 C 363.601 312.795,363.780 313.200,364.000 313.200 C 364.220 313.200,364.400 313.459,364.400 313.776 C 364.400 314.093,364.578 314.463,364.795 314.597 C 365.226 314.863,364.974 314.038,364.124 312.400 C 363.615 311.420,363.605 311.418,363.602 312.300 M294.909 312.300 C 294.995 312.465,295.374 313.275,295.752 314.100 L 296.438 315.600 330.919 315.502 L 365.400 315.405 330.993 315.300 L 296.587 315.196 295.895 313.598 C 295.514 312.719,295.101 312.000,294.978 312.000 C 294.854 312.000,294.823 312.135,294.909 312.300 M398.454 370.076 C 398.425 370.668,398.220 371.264,398.000 371.400 C 397.780 371.536,397.600 372.051,397.600 372.544 C 397.600 373.037,397.405 373.635,397.166 373.874 C 396.928 374.112,396.813 374.733,396.912 375.254 C 397.080 376.140,397.095 376.132,397.146 375.124 C 397.175 374.532,397.380 373.936,397.600 373.800 C 397.820 373.664,398.000 373.149,398.000 372.656 C 398.000 372.163,398.195 371.565,398.434 371.326 C 398.672 371.088,398.787 370.467,398.688 369.946 C 398.520 369.060,398.505 369.068,398.454 370.076 M1.100 371.721 C 1.278 373.197,1.408 373.535,3.375 377.666 C 4.178 379.352,5.143 380.972,5.518 381.266 C 6.135 381.749,6.147 381.732,5.641 381.087 C 4.698 379.887,2.400 375.090,2.400 374.323 C 2.400 373.925,2.220 373.600,2.000 373.600 C 1.780 373.600,1.600 372.981,1.600 372.224 C 1.600 371.467,1.453 370.756,1.272 370.645 C 1.092 370.533,1.014 371.018,1.100 371.721 M395.857 376.684 C 395.723 377.078,395.436 377.805,395.219 378.300 C 394.579 379.764,395.103 379.325,395.834 377.786 C 396.203 377.008,396.414 376.281,396.303 376.170 C 396.192 376.059,395.992 376.290,395.857 376.684 M393.315 382.300 C 393.172 382.685,392.773 383.275,392.428 383.612 C 392.082 383.949,391.262 384.849,390.605 385.612 C 389.874 386.461,390.211 386.241,391.472 385.047 C 392.606 383.974,393.622 382.759,393.730 382.347 C 393.977 381.403,393.662 381.366,393.315 382.300 M383.663 392.400 C 382.972 393.060,382.254 393.600,382.066 393.600 C 381.878 393.600,381.381 394.005,380.962 394.500 C 380.201 395.399,380.201 395.399,381.031 394.700 C 381.489 394.315,382.039 394.000,382.253 394.000 C 382.468 394.000,383.254 393.370,384.000 392.600 C 385.658 390.890,385.402 390.738,383.663 392.400 M19.134 394.882 C 19.583 395.455,23.645 397.595,26.600 398.815 C 27.754 399.292,29.994 399.513,29.755 399.128 C 29.644 398.947,28.933 398.800,28.176 398.800 C 27.419 398.800,26.800 398.620,26.800 398.400 C 26.800 398.180,26.475 398.000,26.077 398.000 C 25.310 398.000,20.513 395.702,19.313 394.759 C 18.668 394.253,18.651 394.265,19.134 394.882 M377.000 396.400 C 375.680 397.050,374.790 397.586,375.021 397.591 C 375.507 397.601,379.600 395.611,379.600 395.364 C 379.600 395.120,379.592 395.123,377.000 396.400 M372.400 398.400 C 372.400 398.620,371.961 398.800,371.424 398.800 C 370.887 398.800,370.346 398.963,370.223 399.163 C 369.980 399.555,371.310 399.345,372.600 398.787 C 373.040 398.597,373.760 398.363,374.200 398.267 C 374.683 398.162,374.486 398.074,373.700 398.046 C 372.985 398.021,372.400 398.180,372.400 398.400 " stroke="none" fill="#408480" fill-rule="evenodd"></path><path id="path4" d="" stroke="none" fill="#400484" fill-rule="evenodd"></path></g></svg>