<svg id="svg" xmlns="http://www.w3.org/2000/svg" xmlns:xlink="http://www.w3.org/1999/xlink" width="400" height="400" viewBox="0, 0, 400,400"><g id="svgg"><path id="path0" d="M81.250 53.125 L 81.250 68.750 76.563 68.750 C 72.917 68.750,71.528 69.097,70.313 70.313 C 69.097 71.528,68.750 72.917,68.750 76.563 L 68.750 81.250 53.125 81.250 L 37.500 81.250 37.500 87.500 L 37.500 93.750 53.125 93.750 L 68.750 93.750 68.750 100.000 L 68.750 106.250 53.125 106.250 L 37.500 106.250 37.500 112.500 L 37.500 118.750 53.125 118.750 L 68.750 118.750 68.750 125.000 L 68.750 131.250 53.125 131.250 L 37.500 131.250 37.500 137.500 L 37.500 143.750 53.125 143.750 L 68.750 143.750 68.750 150.000 L 68.750 156.250 53.125 156.250 L 37.500 156.250 37.500 162.500 L 37.500 168.750 53.125 168.750 L 68.750 168.750 68.750 175.000 L 68.750 181.250 53.125 181.250 L 37.500 181.250 37.500 187.500 L 37.500 193.750 53.125 193.750 L 68.750 193.750 68.750 200.000 L 68.750 206.250 53.125 206.250 L 37.500 206.250 37.500 212.500 L 37.500 218.750 53.125 218.750 L 68.750 218.750 68.750 225.000 L 68.750 231.250 53.125 231.250 L 37.500 231.250 37.500 237.500 L 37.500 243.750 53.125 243.750 L 68.750 243.750 68.750 250.000 L 68.750 256.250 53.125 256.250 L 37.500 256.250 37.500 262.500 L 37.500 268.750 53.125 268.750 L 68.750 268.750 68.750 275.000 L 68.750 281.250 53.125 281.250 L 37.500 281.250 37.500 287.500 L 37.500 293.750 53.125 293.750 L 68.750 293.750 68.750 300.000 L 68.750 306.250 53.125 306.250 L 37.500 306.250 37.500 312.500 L 37.500 318.750 53.125 318.750 L 68.750 318.750 68.750 323.438 C 68.750 329.824,70.176 331.250,76.562 331.250 L 81.250 331.250 81.250 346.875 L 81.250 362.500 87.500 362.500 L 93.750 362.500 93.750 346.875 L 93.750 331.250 100.000 331.250 L 106.250 331.250 106.250 346.875 L 106.250 362.500 112.500 362.500 L 118.750 362.500 118.750 346.875 L 118.750 331.250 125.000 331.250 L 131.250 331.250 131.250 346.875 L 131.250 362.500 137.500 362.500 L 143.750 362.500 143.750 346.875 L 143.750 331.250 150.000 331.250 L 156.250 331.250 156.250 346.875 L 156.250 362.500 162.500 362.500 L 168.750 362.500 168.750 346.875 L 168.750 331.250 175.000 331.250 L 181.250 331.250 181.250 346.875 L 181.250 362.500 187.500 362.500 L 193.750 362.500 193.750 346.875 L 193.750 331.250 200.000 331.250 L 206.250 331.250 206.250 346.875 L 206.250 362.500 212.500 362.500 L 218.750 362.500 218.750 346.875 L 218.750 331.250 225.000 331.250 L 231.250 331.250 231.250 346.875 L 231.250 362.500 237.500 362.500 L 243.750 362.500 243.750 346.875 L 243.750 331.250 250.000 331.250 L 256.250 331.250 256.250 346.875 L 256.250 362.500 262.500 362.500 L 268.750 362.500 268.750 346.875 L 268.750 331.250 275.000 331.250 L 281.250 331.250 281.250 346.875 L 281.250 362.500 287.500 362.500 L 293.750 362.500 293.750 346.875 L 293.750 331.250 300.000 331.250 L 306.250 331.250 306.250 346.875 L 306.250 362.500 312.500 362.500 L 318.750 362.500 318.750 346.875 L 318.750 331.250 323.437 331.250 C 329.824 331.250,331.250 329.824,331.250 323.437 L 331.250 318.750 346.875 318.750 L 362.500 318.750 362.500 312.500 L 362.500 306.250 346.875 306.250 L 331.250 306.250 331.250 300.000 L 331.250 293.750 346.875 293.750 L 362.500 293.750 362.500 287.500 L 362.500 281.250 346.875 281.250 L 331.250 281.250 331.250 275.000 L 331.250 268.750 346.875 268.750 L 362.500 268.750 362.500 262.500 L 362.500 256.250 346.875 256.250 L 331.250 256.250 331.250 250.000 L 331.250 243.750 346.875 243.750 L 362.500 243.750 362.500 237.500 L 362.500 231.250 346.875 231.250 L 331.250 231.250 331.250 225.000 L 331.250 218.750 346.875 218.750 L 362.500 218.750 362.500 212.500 L 362.500 206.250 346.875 206.250 L 331.250 206.250 331.250 200.000 L 331.250 193.750 346.875 193.750 L 362.500 193.750 362.500 187.500 L 362.500 181.250 346.875 181.250 L 331.250 181.250 331.250 175.000 L 331.250 168.750 346.875 168.750 L 362.500 168.750 362.500 162.500 L 362.500 156.250 346.875 156.250 L 331.250 156.250 331.250 150.000 L 331.250 143.750 346.875 143.750 L 362.500 143.750 362.500 137.500 L 362.500 131.250 346.875 131.250 L 331.250 131.250 331.250 125.000 L 331.250 118.750 346.875 118.750 L 362.500 118.750 362.500 112.500 L 362.500 106.250 346.875 106.250 L 331.250 106.250 331.250 100.000 L 331.250 93.750 346.875 93.750 L 362.500 93.750 362.500 87.500 L 362.500 81.250 346.875 81.250 L 331.250 81.250 331.250 76.563 C 331.250 72.917,330.903 71.528,329.688 70.313 C 328.472 69.097,327.083 68.750,323.438 68.750 L 318.750 68.750 318.750 53.125 L 318.750 37.500 312.500 37.500 L 306.250 37.500 306.250 53.125 L 306.250 68.750 300.000 68.750 L 293.750 68.750 293.750 53.125 L 293.750 37.500 287.500 37.500 L 281.250 37.500 281.250 53.125 L 281.250 68.750 275.000 68.750 L 268.750 68.750 268.750 53.125 L 268.750 37.500 262.500 37.500 L 256.250 37.500 256.250 53.125 L 256.250 68.750 250.000 68.750 L 243.750 68.750 243.750 53.125 L 243.750 37.500 237.500 37.500 L 231.250 37.500 231.250 53.125 L 231.250 68.750 225.000 68.750 L 218.750 68.750 218.750 53.125 L 218.750 37.500 212.500 37.500 L 206.250 37.500 206.250 53.125 L 206.250 68.750 200.000 68.750 L 193.750 68.750 193.750 53.125 L 193.750 37.500 187.500 37.500 L 181.250 37.500 181.250 53.125 L 181.250 68.750 175.000 68.750 L 168.750 68.750 168.750 53.125 L 168.750 37.500 162.500 37.500 L 156.250 37.500 156.250 53.125 L 156.250 68.750 150.000 68.750 L 143.750 68.750 143.750 53.125 L 143.750 37.500 137.500 37.500 L 131.250 37.500 131.250 53.125 L 131.250 68.750 125.000 68.750 L 118.750 68.750 118.750 53.125 L 118.750 37.500 112.500 37.500 L 106.250 37.500 106.250 53.125 L 106.250 68.750 100.000 68.750 L 93.750 68.750 93.750 53.125 L 93.750 37.500 87.500 37.500 L 81.250 37.500 81.250 53.125 M318.750 200.000 L 318.750 318.750 200.000 318.750 L 81.250 318.750 81.250 200.000 L 81.250 81.250 200.000 81.250 L 318.750 81.250 318.750 200.000 M93.750 100.000 L 93.750 106.250 100.000 106.250 L 106.250 106.250 106.250 100.000 L 106.250 93.750 100.000 93.750 L 93.750 93.750 93.750 100.000 M293.750 100.000 L 293.750 106.250 300.000 106.250 L 306.250 106.250 306.250 100.000 L 306.250 93.750 300.000 93.750 L 293.750 93.750 293.750 100.000 M123.262 129.512 L 106.250 146.524 106.250 215.449 C 106.250 283.333,106.274 284.399,107.813 285.938 C 110.274 288.399,289.726 288.399,292.188 285.937 C 293.601 284.524,293.750 283.333,293.750 273.437 L 293.750 262.500 287.500 262.500 L 281.250 262.500 281.250 268.750 L 281.250 275.000 200.000 275.000 L 118.750 275.000 118.750 214.250 L 118.750 153.500 133.016 139.250 L 147.281 125.000 214.266 125.000 L 281.250 125.000 281.250 175.000 L 281.250 225.000 287.500 225.000 L 293.750 225.000 293.750 170.313 C 293.750 116.667,293.720 115.595,292.188 114.063 C 290.647 112.522,289.583 112.500,215.449 112.500 L 140.274 112.500 123.262 129.512 M142.023 148.273 L 131.250 159.046 131.250 209.211 C 131.250 258.333,131.282 259.407,132.813 260.938 C 134.350 262.475,135.417 262.500,200.000 262.500 C 264.583 262.500,265.650 262.475,267.188 260.938 C 268.723 259.402,268.750 258.333,268.750 200.000 C 268.750 141.667,268.723 140.598,267.188 139.063 C 265.654 137.529,264.583 137.500,209.211 137.500 L 152.796 137.500 142.023 148.273 M256.250 165.625 L 256.250 181.250 242.401 181.250 L 228.552 181.250 222.864 175.600 L 217.176 169.949 212.299 174.838 L 207.422 179.727 214.535 186.739 L 221.649 193.750 238.949 193.750 L 256.250 193.750 256.250 200.000 L 256.250 206.250 238.949 206.250 L 221.649 206.250 214.535 213.261 L 207.422 220.273 212.299 225.162 L 217.176 230.051 222.864 224.400 L 228.552 218.750 242.401 218.750 L 256.250 218.750 256.250 234.375 L 256.250 250.000 200.000 250.000 L 143.750 250.000 143.750 237.500 L 143.750 225.000 163.855 225.000 L 183.960 225.000 192.764 233.779 L 201.567 242.558 206.448 237.669 L 211.328 232.781 201.113 222.641 L 190.898 212.500 167.324 212.500 L 143.750 212.500 143.750 209.375 L 143.750 206.250 178.125 206.250 L 212.500 206.250 212.500 200.000 L 212.500 193.750 178.125 193.750 L 143.750 193.750 143.750 190.625 L 143.750 187.500 167.324 187.500 L 190.898 187.500 201.113 177.359 L 211.328 167.219 206.448 162.331 L 201.567 157.442 192.764 166.221 L 183.960 175.000 163.855 175.000 L 143.750 175.000 143.750 170.521 L 143.750 166.042 151.744 158.021 L 159.738 150.000 207.994 150.000 L 256.250 150.000 256.250 165.625 M281.250 243.750 L 281.250 250.000 287.500 250.000 L 293.750 250.000 293.750 243.750 L 293.750 237.500 287.500 237.500 L 281.250 237.500 281.250 243.750 M93.750 300.000 L 93.750 306.250 100.000 306.250 L 106.250 306.250 106.250 300.000 L 106.250 293.750 100.000 293.750 L 93.750 293.750 93.750 300.000 M293.750 300.000 L 293.750 306.250 300.000 306.250 L 306.250 306.250 306.250 300.000 L 306.250 293.750 300.000 293.750 L 293.750 293.750 293.750 300.000 " stroke="none" fill="#000000" fill-rule="evenodd"></path></g></svg>