<svg id="svg" xmlns="http://www.w3.org/2000/svg" xmlns:xlink="http://www.w3.org/1999/xlink" width="400" height="400" viewBox="0, 0, 400,400"><g id="svgg"><path id="path0" d="M254.297 57.734 C 247.332 60.966,243.750 67.083,243.750 75.745 L 243.750 81.228 136.133 81.434 L 28.516 81.641 23.828 83.936 C 17.850 86.864,11.874 92.842,8.939 98.828 L 6.641 103.516 6.641 212.500 L 6.641 321.484 8.939 326.172 C 11.874 332.158,17.850 338.136,23.828 341.064 L 28.516 343.359 200.000 343.359 L 371.484 343.359 376.172 341.061 C 382.154 338.128,388.128 332.154,391.061 326.172 L 393.359 321.484 393.359 212.500 L 393.359 103.516 391.061 98.828 C 385.721 87.936,376.283 81.873,363.893 81.375 L 356.250 81.068 356.250 75.665 C 356.250 67.088,352.642 60.954,345.703 57.734 C 340.885 55.499,259.115 55.499,254.297 57.734 M339.372 69.838 C 343.083 71.388,343.750 74.081,343.750 87.500 C 343.750 107.792,347.349 106.250,300.000 106.250 C 252.651 106.250,256.250 107.792,256.250 87.500 C 256.250 74.280,256.937 71.403,260.457 69.871 C 264.080 68.294,335.605 68.264,339.372 69.838 M268.750 87.500 L 268.750 93.750 275.000 93.750 L 281.250 93.750 281.250 87.500 L 281.250 81.250 275.000 81.250 L 268.750 81.250 268.750 87.500 M293.750 87.500 L 293.750 93.750 300.000 93.750 L 306.250 93.750 306.250 87.500 L 306.250 81.250 300.000 81.250 L 293.750 81.250 293.750 87.500 M318.750 87.500 L 318.750 93.750 325.000 93.750 L 331.250 93.750 331.250 87.500 L 331.250 81.250 325.000 81.250 L 318.750 81.250 318.750 87.500 M243.767 99.414 C 243.794 108.188,247.684 114.547,254.858 117.539 C 259.221 119.358,340.779 119.358,345.142 117.539 C 352.352 114.531,356.206 108.195,356.233 99.306 L 356.250 93.534 361.500 94.072 C 370.444 94.988,376.285 98.823,379.453 105.859 C 380.770 108.786,380.873 113.652,381.078 182.617 L 381.296 256.250 343.773 256.250 L 306.250 256.250 306.250 293.763 L 306.250 331.276 170.117 331.068 L 33.984 330.859 30.469 329.227 C 26.218 327.253,21.668 322.391,20.211 318.266 C 18.619 313.759,18.619 111.241,20.211 106.734 C 22.331 100.732,28.475 95.560,34.766 94.482 C 36.484 94.187,84.209 93.902,140.820 93.848 L 243.750 93.750 243.767 99.414 M41.797 107.734 C 27.374 114.426,27.729 136.437,42.358 142.539 C 55.128 147.865,68.716 138.824,68.716 125.000 C 68.716 110.918,54.537 101.823,41.797 107.734 M53.906 121.094 C 57.288 124.475,54.790 130.469,50.000 130.469 C 46.993 130.469,44.531 128.007,44.531 125.000 C 44.531 121.993,46.993 119.531,50.000 119.531 C 51.302 119.531,53.038 120.226,53.906 121.094 M81.250 143.750 L 81.250 156.250 79.102 156.253 C 76.180 156.257,72.188 158.824,70.308 161.907 C 69.454 163.307,68.755 165.420,68.753 166.602 L 68.750 168.750 56.250 168.750 L 43.750 168.750 43.750 175.000 L 43.750 181.250 56.250 181.250 L 68.750 181.250 68.750 187.500 L 68.750 193.750 56.250 193.750 L 43.750 193.750 43.750 200.000 L 43.750 206.250 56.250 206.250 L 68.750 206.250 68.750 212.500 L 68.750 218.750 56.250 218.750 L 43.750 218.750 43.750 225.000 L 43.750 231.250 56.250 231.250 L 68.750 231.250 68.750 237.500 L 68.750 243.750 56.250 243.750 L 43.750 243.750 43.750 250.000 L 43.750 256.250 56.250 256.250 L 68.750 256.250 68.750 262.500 L 68.750 268.750 56.250 268.750 L 43.750 268.750 43.750 275.000 L 43.750 281.250 56.250 281.250 L 68.750 281.250 68.753 283.398 C 68.759 288.078,74.422 293.741,79.102 293.747 L 81.250 293.750 81.250 306.250 L 81.250 318.750 87.500 318.750 L 93.750 318.750 93.750 306.250 L 93.750 293.750 100.000 293.750 L 106.250 293.750 106.250 306.250 L 106.250 318.750 112.500 318.750 L 118.750 318.750 118.750 306.250 L 118.750 293.750 125.000 293.750 L 131.250 293.750 131.250 306.250 L 131.250 318.750 137.500 318.750 L 143.750 318.750 143.750 306.250 L 143.750 293.750 150.000 293.750 L 156.250 293.750 156.250 306.250 L 156.250 318.750 162.500 318.750 L 168.750 318.750 168.750 306.250 L 168.750 293.750 175.000 293.750 L 181.250 293.750 181.250 306.250 L 181.250 318.750 187.500 318.750 L 193.750 318.750 193.750 306.250 L 193.750 293.750 195.898 293.747 C 200.578 293.741,206.241 288.078,206.247 283.398 L 206.250 281.250 218.750 281.250 L 231.250 281.250 231.250 275.000 L 231.250 268.750 218.750 268.750 L 206.250 268.750 206.250 262.500 L 206.250 256.250 218.750 256.250 L 231.250 256.250 231.250 250.000 L 231.250 243.750 218.750 243.750 L 206.250 243.750 206.250 237.500 L 206.250 231.250 218.750 231.250 L 231.250 231.250 231.250 225.000 L 231.250 218.750 218.750 218.750 L 206.250 218.750 206.250 212.500 L 206.250 206.250 218.750 206.250 L 231.250 206.250 231.250 200.000 L 231.250 193.750 218.750 193.750 L 206.250 193.750 206.250 187.500 L 206.250 181.250 218.750 181.250 L 231.250 181.250 231.250 175.000 L 231.250 168.750 218.750 168.750 L 206.250 168.750 206.247 166.602 C 206.241 161.922,200.578 156.259,195.898 156.253 L 193.750 156.250 193.750 143.750 L 193.750 131.250 187.500 131.250 L 181.250 131.250 181.250 143.750 L 181.250 156.250 175.000 156.250 L 168.750 156.250 168.750 143.750 L 168.750 131.250 162.500 131.250 L 156.250 131.250 156.250 143.750 L 156.250 156.250 150.000 156.250 L 143.750 156.250 143.750 143.750 L 143.750 131.250 137.500 131.250 L 131.250 131.250 131.250 143.750 L 131.250 156.250 125.000 156.250 L 118.750 156.250 118.750 143.750 L 118.750 131.250 112.500 131.250 L 106.250 131.250 106.250 143.750 L 106.250 156.250 100.000 156.250 L 93.750 156.250 93.750 143.750 L 93.750 131.250 87.500 131.250 L 81.250 131.250 81.250 143.750 M271.261 132.918 C 259.112 137.587,252.938 152.809,257.860 165.964 C 265.466 186.292,297.021 186.328,304.620 166.017 C 312.640 144.582,292.615 124.713,271.261 132.918 M333.761 132.918 C 321.612 137.587,315.438 152.809,320.360 165.964 C 327.966 186.292,359.521 186.328,367.120 166.017 C 375.140 144.582,355.115 124.713,333.761 132.918 M287.312 146.090 C 297.474 152.286,293.129 167.963,281.250 167.963 C 269.371 167.963,265.026 152.286,275.188 146.090 C 278.531 144.051,283.969 144.051,287.312 146.090 M349.812 146.090 C 359.974 152.286,355.629 167.963,343.750 167.963 C 331.871 167.963,327.526 152.286,337.688 146.090 C 341.031 144.051,346.469 144.051,349.812 146.090 M193.750 225.000 L 193.750 281.250 137.500 281.250 L 81.250 281.250 81.250 225.000 L 81.250 168.750 137.500 168.750 L 193.750 168.750 193.750 225.000 M93.750 225.000 L 93.750 268.750 137.500 268.750 L 181.250 268.750 181.250 225.000 L 181.250 181.250 137.500 181.250 L 93.750 181.250 93.750 225.000 M168.750 225.000 L 168.750 256.250 137.500 256.250 L 106.250 256.250 106.250 225.000 L 106.250 193.750 137.500 193.750 L 168.750 193.750 168.750 225.000 M256.250 218.750 L 256.250 243.750 312.500 243.750 L 368.750 243.750 368.750 218.750 L 368.750 193.750 312.500 193.750 L 256.250 193.750 256.250 218.750 M356.250 218.750 L 356.250 231.250 312.500 231.250 L 268.750 231.250 268.750 218.750 L 268.750 206.250 312.500 206.250 L 356.250 206.250 356.250 218.750 M258.761 270.418 C 246.612 275.087,240.438 290.309,245.360 303.464 C 252.966 323.792,284.521 323.828,292.120 303.517 C 300.140 282.082,280.115 262.213,258.761 270.418 M381.103 292.383 C 380.673 330.189,380.156 330.706,342.383 331.115 L 318.750 331.371 318.750 300.060 L 318.750 268.750 350.060 268.750 L 381.371 268.750 381.103 292.383 M341.797 282.734 C 327.374 289.426,327.729 311.437,342.358 317.539 C 355.128 322.865,368.716 313.824,368.716 300.000 C 368.716 285.918,354.537 276.823,341.797 282.734 M274.812 283.590 C 284.974 289.786,280.629 305.463,268.750 305.463 C 262.084 305.463,257.037 300.416,257.037 293.750 C 257.037 287.084,262.084 282.037,268.750 282.037 C 270.883 282.037,273.267 282.648,274.812 283.590 M353.906 296.094 C 354.774 296.962,355.469 298.698,355.469 300.000 C 355.469 301.302,354.774 303.038,353.906 303.906 C 353.038 304.774,351.302 305.469,350.000 305.469 C 348.698 305.469,346.962 304.774,346.094 303.906 C 345.226 303.038,344.531 301.302,344.531 300.000 C 344.531 298.698,345.226 296.962,346.094 296.094 C 346.962 295.226,348.698 294.531,350.000 294.531 C 351.302 294.531,353.038 295.226,353.906 296.094 " stroke="none" fill="#000000" fill-rule="evenodd"></path></g></svg>